<svg version="1.1" viewBox="0.0 0.0 600.0 371.0" fill="none" stroke="none" stroke-linecap="square" stroke-miterlimit="10" width="600" height="371" xmlns:xlink="http://www.w3.org/1999/xlink" xmlns="http://www.w3.org/2000/svg"><path fill="#ffffff" d="M0 0L600.0 0L600.0 371.0L0 371.0L0 0Z" fill-rule="nonzero"/><path stroke="#cccccc" stroke-width="1.0" stroke-linecap="butt" d="M180.5 61.5L180.5 300.5" fill-rule="nonzero"/><path stroke="#cccccc" stroke-width="1.0" stroke-linecap="butt" d="M308.5 61.5L308.5 300.5" fill-rule="nonzero"/><path stroke="#cccccc" stroke-width="1.0" stroke-linecap="butt" d="M438.5 61.5L438.5 300.5" fill-rule="nonzero"/><path stroke="#cccccc" stroke-width="1.0" stroke-linecap="butt" d="M566.5 61.5L566.5 300.5" fill-rule="nonzero"/><path stroke="#333333" stroke-width="1.0" stroke-linecap="butt" d="M77.5 300.5L581.5 300.5" fill-rule="nonzero"/><path stroke="#cccccc" stroke-width="1.0" stroke-linecap="butt" d="M77.5 240.5L581.5 240.5" fill-rule="nonzero"/><path stroke="#cccccc" stroke-width="1.0" stroke-linecap="butt" d="M77.5 181.5L581.5 181.5" fill-rule="nonzero"/><path stroke="#cccccc" stroke-width="1.0" stroke-linecap="butt" d="M77.5 121.5L581.5 121.5" fill-rule="nonzero"/><path stroke="#cccccc" stroke-width="1.0" stroke-linecap="butt" d="M77.5 61.5L581.5 61.5" fill-rule="nonzero"/><clipPath id="id_0"><path d="M77.55 61.916668L581.45 61.916668L581.45 300.45L77.55 300.45L77.55 61.916668Z" clip-rule="nonzero"/></clipPath><path stroke="#4285f4" stroke-width="2.0" stroke-linecap="butt" clip-path="url(#id_0)" d="M79.53425 91.73333C79.53425 91.73333 80.005 262.68222 80.240364 294.48666C80.47574 326.2911 80.71111 284.53564 80.94649 282.56C81.181854 280.58435 138.61278 293.48065 138.84816 288.52335C139.08353 283.566 139.31891 263.66666 139.55428 258.70667C139.78964 253.74669 360.33383 275.53653 361.9814 276.59668C363.62903 277.65683 366.68887 284.4058 366.92426 282.56C367.15964 280.7142 367.395 272.73804 367.63037 270.63333C367.86575 268.52863 379.399 260.81137 379.63437 258.70667C379.86975 256.60196 380.10513 250.75555 380.34048 246.78C380.57587 242.80444 380.81125 236.69913 381.0466 234.85333C381.28198 233.00754 407.6437 273.757 415.6464 276.59668C423.64905 279.43634 431.65173 267.82303 439.6544 264.67C447.65707 261.51697 471.19434 253.12033 480.60925 252.74333C490.02414 252.36635 508.6186 253.71237 508.85394 258.70667C509.08932 263.70096 509.3247 282.56 509.5601 288.52335C509.79544 294.48666 510.03082 296.3841 510.2662 294.48666C510.50156 292.58923 515.4444 114.8851 518.0335 103.66C520.6226 92.4349 526.03613 269.19928 530.0375 294.48666C534.0388 319.77405 579.46576 133.47667 579.46576 133.47667" fill-rule="nonzero"/><path fill="#4285f4" clip-path="url(#id_0)" d="M81.53425 91.73333C81.53425 92.837906 80.63882 93.73333 79.53425 93.73333C78.42968 93.73333 77.53425 92.837906 77.53425 91.73333C77.53425 90.62876 78.42968 89.73333 79.53425 89.73333C80.63882 89.73333 81.53425 90.62876 81.53425 91.73333Z" fill-rule="nonzero"/><path fill="#4285f4" clip-path="url(#id_0)" d="M82.240364 294.48666C82.240364 295.59125 81.34493 296.48666 80.240364 296.48666C79.135796 296.48666 78.240364 295.59125 78.240364 294.48666C78.240364 293.3821 79.135796 292.48666 80.240364 292.48666C81.34493 292.48666 82.240364 293.3821 82.240364 294.48666Z" fill-rule="nonzero"/><path fill="#4285f4" clip-path="url(#id_0)" d="M82.94649 282.56C82.94649 283.66458 82.051056 284.56 80.94649 284.56C79.84192 284.56 78.94649 283.66458 78.94649 282.56C78.94649 281.45544 79.84192 280.56 80.94649 280.56C82.051056 280.56 82.94649 281.45544 82.94649 282.56Z" fill-rule="nonzero"/><path fill="#4285f4" clip-path="url(#id_0)" d="M140.84816 288.52335C140.84816 289.6279 139.95273 290.52335 138.84816 290.52335C137.74359 290.52335 136.84816 289.6279 136.84816 288.52335C136.84816 287.41876 137.74359 286.52335 138.84816 286.52335C139.95273 286.52335 140.84816 287.41876 140.84816 288.52335Z" fill-rule="nonzero"/><path fill="#4285f4" clip-path="url(#id_0)" d="M141.55428 258.70667C141.55428 259.81125 140.65884 260.70667 139.55428 260.70667C138.4497 260.70667 137.55428 259.81125 137.55428 258.70667C137.55428 257.6021 138.4497 256.70667 139.55428 256.70667C140.65884 256.70667 141.55428 257.6021 141.55428 258.70667Z" fill-rule="nonzero"/><path fill="#4285f4" clip-path="url(#id_0)" d="M363.9814 276.59668C363.9814 277.70123 363.086 278.59668 361.9814 278.59668C360.87686 278.59668 359.9814 277.70123 359.9814 276.59668C359.9814 275.4921 360.87686 274.59668 361.9814 274.59668C363.086 274.59668 363.9814 275.4921 363.9814 276.59668Z" fill-rule="nonzero"/><path fill="#4285f4" clip-path="url(#id_0)" d="M368.92426 282.56C368.92426 283.66458 368.0288 284.56 366.92426 284.56C365.81967 284.56 364.92426 283.66458 364.92426 282.56C364.92426 281.45544 365.81967 280.56 366.92426 280.56C368.0288 280.56 368.92426 281.45544 368.92426 282.56Z" fill-rule="nonzero"/><path fill="#4285f4" clip-path="url(#id_0)" d="M369.63037 270.63333C369.63037 271.7379 368.73492 272.63333 367.63037 272.63333C366.5258 272.63333 365.63037 271.7379 365.63037 270.63333C365.63037 269.52878 366.5258 268.63333 367.63037 268.63333C368.73492 268.63333 369.63037 269.52878 369.63037 270.63333Z" fill-rule="nonzero"/><path fill="#4285f4" clip-path="url(#id_0)" d="M381.63437 258.70667C381.63437 259.81125 380.73895 260.70667 379.63437 260.70667C378.52982 260.70667 377.63437 259.81125 377.63437 258.70667C377.63437 257.6021 378.52982 256.70667 379.63437 256.70667C380.73895 256.70667 381.63437 257.6021 381.63437 258.70667Z" fill-rule="nonzero"/><path fill="#4285f4" clip-path="url(#id_0)" d="M382.34048 246.78C382.34048 247.88457 381.44507 248.78 380.34048 248.78C379.23593 248.78 378.34048 247.88457 378.34048 246.78C378.34048 245.67543 379.23593 244.78 380.34048 244.78C381.44507 244.78 382.34048 245.67543 382.34048 246.78Z" fill-rule="nonzero"/><path fill="#4285f4" clip-path="url(#id_0)" d="M383.0466 234.85333C383.0466 235.9579 382.15118 236.85333 381.0466 236.85333C379.94205 236.85333 379.0466 235.9579 379.0466 234.85333C379.0466 233.74876 379.94205 232.85333 381.0466 232.85333C382.15118 232.85333 383.0466 233.74876 383.0466 234.85333Z" fill-rule="nonzero"/><path fill="#4285f4" clip-path="url(#id_0)" d="M417.6464 276.59668C417.6464 277.70123 416.75095 278.59668 415.6464 278.59668C414.5418 278.59668 413.6464 277.70123 413.6464 276.59668C413.6464 275.4921 414.5418 274.59668 415.6464 274.59668C416.75095 274.59668 417.6464 275.4921 417.6464 276.59668Z" fill-rule="nonzero"/><path fill="#4285f4" clip-path="url(#id_0)" d="M441.6544 264.67C441.6544 265.77457 440.75897 266.67 439.6544 266.67C438.54984 266.67 437.6544 265.77457 437.6544 264.67C437.6544 263.56543 438.54984 262.67 439.6544 262.67C440.75897 262.67 441.6544 263.56543 441.6544 264.67Z" fill-rule="nonzero"/><path fill="#4285f4" clip-path="url(#id_0)" d="M482.60925 252.74333C482.60925 253.8479 481.7138 254.74333 480.60925 254.74333C479.50467 254.74333 478.60925 253.8479 478.60925 252.74333C478.60925 251.63876 479.50467 250.74333 480.60925 250.74333C481.7138 250.74333 482.60925 251.63876 482.60925 252.74333Z" fill-rule="nonzero"/><path fill="#4285f4" clip-path="url(#id_0)" d="M510.85394 258.70667C510.85394 259.81125 509.95853 260.70667 508.85394 260.70667C507.7494 260.70667 506.85394 259.81125 506.85394 258.70667C506.85394 257.6021 507.7494 256.70667 508.85394 256.70667C509.95853 256.70667 510.85394 257.6021 510.85394 258.70667Z" fill-rule="nonzero"/><path fill="#4285f4" clip-path="url(#id_0)" d="M511.5601 288.52335C511.5601 289.6279 510.66464 290.52335 509.5601 290.52335C508.4555 290.52335 507.5601 289.6279 507.5601 288.52335C507.5601 287.41876 508.4555 286.52335 509.5601 286.52335C510.66464 286.52335 511.5601 287.41876 511.5601 288.52335Z" fill-rule="nonzero"/><path fill="#4285f4" clip-path="url(#id_0)" d="M512.2662 294.48666C512.2662 295.59125 511.37076 296.48666 510.2662 296.48666C509.16162 296.48666 508.2662 295.59125 508.2662 294.48666C508.2662 293.3821 509.16162 292.48666 510.2662 292.48666C511.37076 292.48666 512.2662 293.3821 512.2662 294.48666Z" fill-rule="nonzero"/><path fill="#4285f4" clip-path="url(#id_0)" d="M520.0335 103.66C520.0335 104.76457 519.13806 105.66 518.0335 105.66C516.9289 105.66 516.0335 104.76457 516.0335 103.66C516.0335 102.55543 516.9289 101.66 518.0335 101.66C519.13806 101.66 520.0335 102.55543 520.0335 103.66Z" fill-rule="nonzero"/><path fill="#4285f4" clip-path="url(#id_0)" d="M532.0375 294.48666C532.0375 295.59125 531.1421 296.48666 530.0375 296.48666C528.9329 296.48666 528.0375 295.59125 528.0375 294.48666C528.0375 293.3821 528.9329 292.48666 530.0375 292.48666C531.1421 292.48666 532.0375 293.3821 532.0375 294.48666Z" fill-rule="nonzero"/><path fill="#4285f4" clip-path="url(#id_0)" d="M581.46576 133.47667C581.46576 134.58124 580.5703 135.47667 579.46576 135.47667C578.3612 135.47667 577.46576 134.58124 577.46576 133.47667C577.46576 132.3721 578.3612 131.47667 579.46576 131.47667C580.5703 131.47667 581.46576 132.3721 581.46576 133.47667Z" fill-rule="nonzero"/><path fill="#000000" d="M317.42188 349.45L317.42188 340.85626L320.39062 340.85626Q321.39062 340.85626 321.92188 340.98126Q322.65625 341.15314 323.17188 341.59064Q323.85938 342.16876 324.1875 343.075Q324.53125 343.96564 324.53125 345.10626Q324.53125 346.09064 324.29688 346.84064Q324.07812 347.59064 323.71875 348.09064Q323.35938 348.59064 322.92188 348.8719Q322.5 349.15314 321.90625 349.3094Q321.3125 349.45 320.53125 349.45L317.42188 349.45ZM318.5625 348.4344L320.39062 348.4344Q321.25 348.4344 321.73438 348.27814Q322.21875 348.1219 322.5 347.825Q322.90625 347.4344 323.125 346.7469Q323.35938 346.0594 323.35938 345.09064Q323.35938 343.7469 322.90625 343.02814Q322.46875 342.29376 321.84375 342.04376Q321.375 341.8719 320.375 341.8719L318.5625 341.8719L318.5625 348.4344ZM330.35938 348.6844Q329.76562 349.1844 329.21875 349.3875Q328.6875 349.59064 328.0625 349.59064Q327.03125 349.59064 326.48438 349.09064Q325.9375 348.59064 325.9375 347.8094Q325.9375 347.35626 326.14062 346.98126Q326.34375 346.59064 326.6875 346.3719Q327.03125 346.1375 327.45312 346.02814Q327.75 345.9344 328.39062 345.85626Q329.65625 345.71564 330.26562 345.4969Q330.26562 345.27814 330.26562 345.23126Q330.26562 344.575 329.96875 344.3094Q329.5625 343.96564 328.76562 343.96564Q328.03125 343.96564 327.67188 344.23126Q327.3125 344.48126 327.14062 345.1375L326.10938 344.9969Q326.25 344.34064 326.57812 343.9344Q326.90625 343.52814 327.51562 343.3094Q328.125 343.09064 328.92188 343.09064Q329.71875 343.09064 330.21875 343.27814Q330.71875 343.46564 330.95312 343.7469Q331.1875 344.02814 331.28125 344.46564Q331.32812 344.73126 331.32812 345.4344L331.32812 346.84064Q331.32812 348.3094 331.39062 348.7Q331.46875 349.09064 331.67188 349.45L330.5625 349.45Q330.40625 349.1219 330.35938 348.6844ZM330.26562 346.325Q329.6875 346.5594 328.54688 346.73126Q327.89062 346.825 327.625 346.95Q327.35938 347.0594 327.20312 347.27814Q327.0625 347.4969 327.0625 347.77814Q327.0625 348.2 327.375 348.48126Q327.70312 348.7625 328.3125 348.7625Q328.92188 348.7625 329.39062 348.4969Q329.875 348.23126 330.09375 347.7625Q330.26562 347.40314 330.26562 346.71564L330.26562 346.325ZM335.59375 348.5125L335.75 349.4344Q335.29688 349.52814 334.95312 349.52814Q334.375 349.52814 334.0625 349.35626Q333.75 349.16876 333.60938 348.8719Q333.48438 348.575 333.48438 347.6219L333.48438 344.04376L332.71875 344.04376L332.71875 343.23126L333.48438 343.23126L333.48438 341.6844L334.53125 341.0594L334.53125 343.23126L335.59375 343.23126L335.59375 344.04376L334.53125 344.04376L334.53125 347.6844Q334.53125 348.1375 334.57812 348.2625Q334.64062 348.3875 334.76562 348.46564Q334.89062 348.54376 335.125 348.54376Q335.3125 348.54376 335.59375 348.5125ZM340.54688 347.45L341.64062 347.575Q341.39062 348.52814 340.6875 349.0594Q339.98438 349.59064 338.90625 349.59064Q337.54688 349.59064 336.73438 348.7469Q335.9375 347.90314 335.9375 346.3875Q335.9375 344.825 336.75 343.96564Q337.5625 343.09064 338.84375 343.09064Q340.09375 343.09064 340.875 343.9344Q341.67188 344.77814 341.67188 346.325Q341.67188 346.41876 341.67188 346.60626L337.03125 346.60626Q337.09375 347.6375 337.60938 348.1844Q338.125 348.71564 338.90625 348.71564Q339.48438 348.71564 339.89062 348.41876Q340.3125 348.10626 340.54688 347.45ZM337.09375 345.7469L340.5625 345.7469Q340.5 344.95 340.17188 344.5594Q339.65625 343.95 338.85938 343.95Q338.125 343.95 337.625 344.4344Q337.14062 344.91876 337.09375 345.7469Z" fill-rule="nonzero"/><path fill="#000000" d="M29.550013 235.76146L20.956263 235.76146L20.956263 234.60521L27.706263 230.08958L20.956263 230.08958L20.956263 228.99583L29.550013 228.99583L29.550013 230.16771L22.800013 234.68333L29.550013 234.68333L29.550013 235.76146ZM27.550013 222.63646L27.675013 221.54271Q28.628138 221.79271 29.159388 222.49583Q29.690638 223.19896 29.690638 224.27708Q29.690638 225.63646 28.846888 226.44896Q28.003138 227.24583 26.487513 227.24583Q24.925013 227.24583 24.065638 226.43333Q23.190638 225.62083 23.190638 224.33958Q23.190638 223.08958 24.034388 222.30833Q24.878138 221.51146 26.425013 221.51146Q26.518763 221.51146 26.706263 221.51146L26.706263 226.15208Q27.737513 226.08958 28.284388 225.57396Q28.815638 225.05833 28.815638 224.27708Q28.815638 223.69896 28.518763 223.29271Q28.206263 222.87083 27.550013 222.63646ZM25.846888 226.08958L25.846888 222.62083Q25.050013 222.68333 24.659388 223.01146Q24.050013 223.52708 24.050013 224.32396Q24.050013 225.05833 24.534388 225.55833Q25.018763 226.04271 25.846888 226.08958ZM27.550013 215.63646L27.675013 214.54271Q28.628138 214.79271 29.159388 215.49583Q29.690638 216.19896 29.690638 217.27708Q29.690638 218.63646 28.846888 219.44896Q28.003138 220.24583 26.487513 220.24583Q24.925013 220.24583 24.065638 219.43333Q23.190638 218.62083 23.190638 217.33958Q23.190638 216.08958 24.034388 215.30833Q24.878138 214.51146 26.425013 214.51146Q26.518763 214.51146 26.706263 214.51146L26.706263 219.15208Q27.737513 219.08958 28.284388 218.57396Q28.815638 218.05833 28.815638 217.27708Q28.815638 216.69896 28.518763 216.29271Q28.206263 215.87083 27.550013 215.63646ZM25.846888 219.08958L25.846888 215.62083Q25.050013 215.68333 24.659388 216.01146Q24.050013 216.52708 24.050013 217.32396Q24.050013 218.05833 24.534388 218.55833Q25.018763 219.04271 25.846888 219.08958ZM29.550013 208.85521L28.768763 208.85521Q29.690638 209.44896 29.690638 210.58958Q29.690638 211.33958 29.284388 211.96458Q28.862513 212.58958 28.128138 212.93333Q27.393763 213.27708 26.440638 213.27708Q25.518763 213.27708 24.753138 212.96458Q23.987513 212.65208 23.596888 212.02708Q23.190638 211.40208 23.190638 210.63646Q23.190638 210.07396 23.425013 209.63646Q23.659388 209.19896 24.034388 208.91771L20.956263 208.91771L20.956263 207.87083L29.550013 207.87083L29.550013 208.85521ZM26.440638 212.18333Q27.643763 212.18333 28.237513 211.68333Q28.815638 211.18333 28.815638 210.49583Q28.815638 209.80833 28.253138 209.32396Q27.690638 208.83958 26.534388 208.83958Q25.253138 208.83958 24.659388 209.33958Q24.065638 209.82396 24.065638 210.54271Q24.065638 211.24583 24.643763 211.71458Q25.206263 212.18333 26.440638 212.18333ZM29.550013 205.91771L20.956263 205.91771L20.956263 204.85521L29.550013 204.85521L29.550013 205.91771ZM27.550013 198.63646L27.675013 197.54271Q28.628138 197.79271 29.159388 198.49583Q29.690638 199.19896 29.690638 200.27708Q29.690638 201.63646 28.846888 202.44896Q28.003138 203.24583 26.487513 203.24583Q24.925013 203.24583 24.065638 202.43333Q23.190638 201.62083 23.190638 200.33958Q23.190638 199.08958 24.034388 198.30833Q24.878138 197.51146 26.425013 197.51146Q26.518763 197.51146 26.706263 197.51146L26.706263 202.15208Q27.737513 202.08958 28.284388 201.57396Q28.815638 201.05833 28.815638 200.27708Q28.815638 199.69896 28.518763 199.29271Q28.206263 198.87083 27.550013 198.63646ZM25.846888 202.08958L25.846888 198.62083Q25.050013 198.68333 24.659388 199.01146Q24.050013 199.52708 24.050013 200.32396Q24.050013 201.05833 24.534388 201.55833Q25.018763 202.04271 25.846888 202.08958ZM27.690638 196.30833L27.534388 195.27708Q28.159388 195.18333 28.487513 194.79271Q28.815638 194.38646 28.815638 193.65208Q28.815638 192.93333 28.534388 192.58958Q28.237513 192.23021 27.831263 192.23021Q27.471888 192.23021 27.268763 192.54271Q27.128138 192.76146 26.909388 193.62083Q26.612513 194.77708 26.409388 195.23021Q26.190638 195.66771 25.815638 195.90208Q25.440638 196.13646 24.971888 196.13646Q24.565638 196.13646 24.206263 195.94896Q23.846888 195.76146 23.612513 195.43333Q23.440638 195.18333 23.315638 194.76146Q23.190638 194.33958 23.190638 193.83958Q23.190638 193.12083 23.409388 192.57396Q23.612513 192.01146 23.971888 191.74583Q24.331263 191.48021 24.925013 191.38646L25.065638 192.41771Q24.596888 192.48021 24.331263 192.82396Q24.050013 193.15208 24.050013 193.77708Q24.050013 194.49583 24.300013 194.80833Q24.534388 195.12083 24.862513 195.12083Q25.065638 195.12083 25.221888 194.99583Q25.393763 194.85521 25.503138 194.58958Q25.565638 194.43333 25.768763 193.65208Q26.081263 192.52708 26.268763 192.08958Q26.456263 191.65208 26.815638 191.40208Q27.175013 191.15208 27.721888 191.15208Q28.253138 191.15208 28.721888 191.46458Q29.175013 191.76146 29.440638 192.33958Q29.690638 192.91771 29.690638 193.65208Q29.690638 194.87083 29.190638 195.51146Q28.675013 196.13646 27.690638 196.30833ZM27.268763 181.82396L27.409388 180.79271Q28.471888 180.96458 29.081263 181.66771Q29.690638 182.37083 29.690638 183.38646Q29.690638 184.66771 28.862513 185.44896Q28.018763 186.21458 26.456263 186.21458Q25.456263 186.21458 24.706263 185.88646Q23.940638 185.54271 23.565638 184.87083Q23.190638 184.18333 23.190638 183.37083Q23.190638 182.37083 23.706263 181.73021Q24.206263 181.07396 25.159388 180.88646L25.315638 181.91771Q24.690638 182.05833 24.378138 182.43333Q24.050013 182.80833 24.050013 183.33958Q24.050013 184.13646 24.628138 184.63646Q25.190638 185.13646 26.425013 185.13646Q27.690638 185.13646 28.253138 184.65208Q28.815638 184.16771 28.815638 183.40208Q28.815638 182.77708 28.440638 182.37083Q28.065638 181.94896 27.268763 181.82396ZM29.550013 179.88646L20.956263 179.88646L20.956263 178.83958L24.034388 178.83958Q23.190638 178.10521 23.190638 176.98021Q23.190638 176.27708 23.471888 175.77708Q23.737513 175.26146 24.221888 175.04271Q24.690638 174.82396 25.612513 174.82396L29.550013 174.82396L29.550013 175.87083L25.612513 175.87083Q24.815638 175.87083 24.456263 176.21458Q24.096888 176.55833 24.096888 177.18333Q24.096888 177.65208 24.346888 178.07396Q24.581263 178.48021 25.003138 178.66771Q25.409388 178.83958 26.143763 178.83958L29.550013 178.83958L29.550013 179.88646ZM28.784388 168.82396Q29.284388 169.41771 29.487513 169.96458Q29.690638 170.49583 29.690638 171.12083Q29.690638 172.15208 29.190638 172.69896Q28.690638 173.24583 27.909388 173.24583Q27.456263 173.24583 27.081263 173.04271Q26.690638 172.83958 26.471888 172.49583Q26.237513 172.15208 26.128138 171.73021Q26.034388 171.43333 25.956263 170.79271Q25.815638 169.52708 25.596888 168.91771Q25.378138 168.91771 25.331263 168.91771Q24.675013 168.91771 24.409388 169.21458Q24.065638 169.62083 24.065638 170.41771Q24.065638 171.15208 24.331263 171.51146Q24.581263 171.87083 25.237513 172.04271L25.096888 173.07396Q24.440638 172.93333 24.034388 172.60521Q23.628138 172.27708 23.409388 171.66771Q23.190638 171.05833 23.190638 170.26146Q23.190638 169.46458 23.378138 168.96458Q23.565638 168.46458 23.846888 168.23021Q24.128138 167.99583 24.565638 167.90208Q24.831263 167.85521 25.534388 167.85521L26.940638 167.85521Q28.409388 167.85521 28.800013 167.79271Q29.190638 167.71458 29.550013 167.51146L29.550013 168.62083Q29.221888 168.77708 28.784388 168.82396ZM26.425013 168.91771Q26.659388 169.49583 26.831263 170.63646Q26.925013 171.29271 27.050013 171.55833Q27.159388 171.82396 27.378138 171.98021Q27.596888 172.12083 27.878138 172.12083Q28.300013 172.12083 28.581263 171.80833Q28.862513 171.48021 28.862513 170.87083Q28.862513 170.26146 28.596888 169.79271Q28.331263 169.30833 27.862513 169.08958Q27.503138 168.91771 26.815638 168.91771L26.425013 168.91771ZM29.550013 165.88646L23.331263 165.88646L23.331263 164.94896L24.206263 164.94896Q23.190638 164.26146 23.190638 162.96458Q23.190638 162.40208 23.393763 161.93333Q23.596888 161.44896 23.925013 161.21458Q24.253138 160.98021 24.690638 160.88646Q24.987513 160.83958 25.721888 160.83958L29.550013 160.83958L29.550013 161.88646L25.768763 161.88646Q25.112513 161.88646 24.800013 162.01146Q24.487513 162.13646 24.300013 162.44896Q24.096888 162.76146 24.096888 163.18333Q24.096888 163.85521 24.534388 164.35521Q24.956263 164.83958 26.143763 164.83958L29.550013 164.83958L29.550013 165.88646ZM30.065638 159.08958L30.221888 158.05833Q30.690638 157.99583 30.909388 157.69896Q31.206263 157.30833 31.206263 156.63646Q31.206263 155.90208 30.909388 155.51146Q30.612513 155.10521 30.096888 154.96458Q29.768763 154.87083 28.737513 154.88646Q29.550013 155.57396 29.550013 156.60521Q29.550013 157.88646 28.628138 158.58958Q27.690638 159.29271 26.409388 159.29271Q25.518763 159.29271 24.768763 158.98021Q24.003138 158.65208 23.596888 158.04271Q23.190638 157.43333 23.190638 156.60521Q23.190638 155.49583 24.081263 154.77708L23.331263 154.77708L23.331263 153.80833L28.706263 153.80833Q30.159388 153.80833 30.768763 154.10521Q31.378138 154.40208 31.721888 155.04271Q32.08126 155.68333 32.08126 156.62083Q32.08126 157.73021 31.581263 158.41771Q31.081263 159.10521 30.065638 159.08958ZM26.331263 158.21458Q27.550013 158.21458 28.112513 157.73021Q28.675013 157.24583 28.675013 156.51146Q28.675013 155.77708 28.112513 155.29271Q27.550013 154.79271 26.362513 154.79271Q25.221888 154.79271 24.643763 155.30833Q24.065638 155.80833 24.065638 156.52708Q24.065638 157.23021 24.643763 157.73021Q25.206263 158.21458 26.331263 158.21458ZM27.550013 147.63646L27.675013 146.54271Q28.628138 146.79271 29.159388 147.49583Q29.690638 148.19896 29.690638 149.27708Q29.690638 150.63646 28.846888 151.44896Q28.003138 152.24583 26.487513 152.24583Q24.925013 152.24583 24.065638 151.43333Q23.190638 150.62083 23.190638 149.33958Q23.190638 148.08958 24.034388 147.30833Q24.878138 146.51146 26.425013 146.51146Q26.518763 146.51146 26.706263 146.51146L26.706263 151.15208Q27.737513 151.08958 28.284388 150.57396Q28.815638 150.05833 28.815638 149.27708Q28.815638 148.69896 28.518763 148.29271Q28.206263 147.87083 27.550013 147.63646ZM25.846888 151.08958L25.846888 147.62083Q25.050013 147.68333 24.659388 148.01146Q24.050013 148.52708 24.050013 149.32396Q24.050013 150.05833 24.534388 150.55833Q25.018763 151.04271 25.846888 151.08958ZM29.550013 140.85521L28.768763 140.85521Q29.690638 141.44896 29.690638 142.58958Q29.690638 143.33958 29.284388 143.96458Q28.862513 144.58958 28.128138 144.93333Q27.393763 145.27708 26.440638 145.27708Q25.518763 145.27708 24.753138 144.96458Q23.987513 144.65208 23.596888 144.02708Q23.190638 143.40208 23.190638 142.63646Q23.190638 142.07396 23.425013 141.63646Q23.659388 141.19896 24.034388 140.91771L20.956263 140.91771L20.956263 139.87083L29.550013 139.87083L29.550013 140.85521ZM26.440638 144.18333Q27.643763 144.18333 28.237513 143.68333Q28.815638 143.18333 28.815638 142.49583Q28.815638 141.80833 28.253138 141.32396Q27.690638 140.83958 26.534388 140.83958Q25.253138 140.83958 24.659388 141.33958Q24.065638 141.82396 24.065638 142.54271Q24.065638 143.24583 24.643763 143.71458Q25.206263 144.18333 26.440638 144.18333Z" fill-rule="nonzero"/><path fill="#000000" d="M65.05 300.21564Q65.05 298.6844 65.3625 297.7625Q65.675 296.825 66.28438 296.325Q66.90938 295.825 67.84688 295.825Q68.53438 295.825 69.05 296.10626Q69.58125 296.3875 69.925 296.91876Q70.26875 297.4344 70.45625 298.1844Q70.64375 298.9344 70.64375 300.21564Q70.64375 301.73126 70.33125 302.65314Q70.03438 303.575 69.40938 304.09064Q68.8 304.59064 67.84688 304.59064Q66.6125 304.59064 65.89375 303.7Q65.05 302.6375 65.05 300.21564ZM66.12813 300.21564Q66.12813 302.325 66.62813 303.02814Q67.12813 303.73126 67.84688 303.73126Q68.58125 303.73126 69.06563 303.02814Q69.56563 302.325 69.56563 300.21564Q69.56563 298.09064 69.06563 297.40314Q68.58125 296.7 67.83125 296.7Q67.1125 296.7 66.675 297.3094Q66.12813 298.09064 66.12813 300.21564Z" fill-rule="nonzero"/><path fill="#000000" d="M62.01875 244.81667L60.971874 244.81667L60.971874 238.09792Q60.58125 238.45729 59.95625 238.83229Q59.346874 239.19167 58.8625 239.36354L58.8625 238.34792Q59.7375 237.92604 60.39375 237.34792Q61.065624 236.75417 61.346874 236.19167L62.01875 236.19167L62.01875 244.81667ZM65.05 240.58229Q65.05 239.05104 65.3625 238.12917Q65.675 237.19167 66.28438 236.69167Q66.90938 236.19167 67.84688 236.19167Q68.53438 236.19167 69.05 236.47292Q69.58125 236.75417 69.925 237.28542Q70.26875 237.80104 70.45625 238.55104Q70.64375 239.30104 70.64375 240.58229Q70.64375 242.09792 70.33125 243.01979Q70.03438 243.94167 69.40938 244.45729Q68.8 244.95729 67.84688 244.95729Q66.6125 244.95729 65.89375 244.06667Q65.05 243.00417 65.05 240.58229ZM66.12813 240.58229Q66.12813 242.69167 66.62813 243.39479Q67.12813 244.09792 67.84688 244.09792Q68.58125 244.09792 69.06563 243.39479Q69.56563 242.69167 69.56563 240.58229Q69.56563 238.45729 69.06563 237.76979Q68.58125 237.06667 67.83125 237.06667Q67.1125 237.06667 66.675 237.67604Q66.12813 238.45729 66.12813 240.58229Z" fill-rule="nonzero"/><path fill="#000000" d="M63.596874 184.16771L63.596874 185.18333L57.909374 185.18333Q57.909374 184.80833 58.034374 184.44896Q58.253124 183.87083 58.721874 183.30833Q59.20625 182.74583 60.1125 182.01146Q61.51875 180.85521 62.003124 180.18333Q62.503124 179.51146 62.503124 178.91771Q62.503124 178.29271 62.05 177.87083Q61.596874 177.43333 60.878124 177.43333Q60.1125 177.43333 59.659374 177.88646Q59.20625 178.33958 59.190624 179.15208L58.1125 179.04271Q58.221874 177.82396 58.940624 177.19896Q59.675 176.55833 60.909374 176.55833Q62.14375 176.55833 62.8625 177.24583Q63.58125 177.93333 63.58125 178.94896Q63.58125 179.46458 63.3625 179.96458Q63.159374 180.44896 62.659374 181.01146Q62.175 181.55833 61.05 182.51146Q60.096874 183.30833 59.815624 183.60521Q59.55 183.88646 59.378124 184.16771L63.596874 184.16771ZM65.05 180.94896Q65.05 179.41771 65.3625 178.49583Q65.675 177.55833 66.28438 177.05833Q66.90938 176.55833 67.84688 176.55833Q68.53438 176.55833 69.05 176.83958Q69.58125 177.12083 69.925 177.65208Q70.26875 178.16771 70.45625 178.91771Q70.64375 179.66771 70.64375 180.94896Q70.64375 182.46458 70.33125 183.38646Q70.03438 184.30833 69.40938 184.82396Q68.8 185.32396 67.84688 185.32396Q66.6125 185.32396 65.89375 184.43333Q65.05 183.37083 65.05 180.94896ZM66.12813 180.94896Q66.12813 183.05833 66.62813 183.76146Q67.12813 184.46458 67.84688 184.46458Q68.58125 184.46458 69.06563 183.76146Q69.56563 183.05833 69.56563 180.94896Q69.56563 178.82396 69.06563 178.13646Q68.58125 177.43333 67.83125 177.43333Q67.1125 177.43333 66.675 178.04271Q66.12813 178.82396 66.12813 180.94896Z" fill-rule="nonzero"/><path fill="#000000" d="M58.05 123.28438L59.1125 123.14375Q59.284374 124.03438 59.721874 124.44063Q60.159374 124.83125 60.784374 124.83125Q61.534374 124.83125 62.05 124.31563Q62.565624 123.8 62.565624 123.03438Q62.565624 122.31563 62.08125 121.84688Q61.6125 121.3625 60.878124 121.3625Q60.58125 121.3625 60.128124 121.4875L60.253124 120.55Q60.3625 120.56563 60.425 120.56563Q61.096874 120.56563 61.628124 120.22188Q62.175 119.8625 62.175 119.12813Q62.175 118.55 61.784374 118.175Q61.39375 117.78438 60.76875 117.78438Q60.159374 117.78438 59.7375 118.175Q59.33125 118.56563 59.221874 119.33125L58.159374 119.14375Q58.346874 118.09688 59.034374 117.51875Q59.721874 116.925 60.7375 116.925Q61.440624 116.925 62.034374 117.2375Q62.628124 117.53438 62.940624 118.05Q63.253124 118.56563 63.253124 119.15938Q63.253124 119.70625 62.95625 120.175Q62.659374 120.62813 62.08125 120.89375Q62.83125 121.06563 63.253124 121.62813Q63.675 122.175 63.675 123.01875Q63.675 124.14375 62.846874 124.925Q62.034374 125.70625 60.784374 125.70625Q59.659374 125.70625 58.909374 125.03438Q58.159374 124.34688 58.05 123.28438ZM65.05 121.31563Q65.05 119.78438 65.3625 118.8625Q65.675 117.925 66.28438 117.425Q66.90938 116.925 67.84688 116.925Q68.53438 116.925 69.05 117.20625Q69.58125 117.4875 69.925 118.01875Q70.26875 118.53438 70.45625 119.28438Q70.64375 120.03438 70.64375 121.31563Q70.64375 122.83125 70.33125 123.75313Q70.03438 124.675 69.40938 125.19063Q68.8 125.69063 67.84688 125.69063Q66.6125 125.69063 65.89375 124.8Q65.05 123.7375 65.05 121.31563ZM66.12813 121.31563Q66.12813 123.425 66.62813 124.12813Q67.12813 124.83125 67.84688 124.83125Q68.58125 124.83125 69.06563 124.12813Q69.56563 123.425 69.56563 121.31563Q69.56563 119.19063 69.06563 118.50313Q68.58125 117.8 67.83125 117.8Q67.1125 117.8 66.675 118.40938Q66.12813 119.19063 66.12813 121.31563Z" fill-rule="nonzero"/><path fill="#000000" d="M61.425 65.916664L61.425 63.854164L57.70625 63.854164L57.70625 62.885414L61.628124 57.322914L62.4875 57.322914L62.4875 62.885414L63.64375 62.885414L63.64375 63.854164L62.4875 63.854164L62.4875 65.916664L61.425 65.916664ZM61.425 62.885414L61.425 59.02604L58.7375 62.885414L61.425 62.885414ZM65.05 61.68229Q65.05 60.15104 65.3625 59.229164Q65.675 58.291664 66.28438 57.791664Q66.90938 57.291664 67.84688 57.291664Q68.53438 57.291664 69.05 57.572914Q69.58125 57.854164 69.925 58.385414Q70.26875 58.90104 70.45625 59.65104Q70.64375 60.40104 70.64375 61.68229Q70.64375 63.197914 70.33125 64.11979Q70.03438 65.041664 69.40938 65.55729Q68.8 66.05729 67.84688 66.05729Q66.6125 66.05729 65.89375 65.166664Q65.05 64.104164 65.05 61.68229ZM66.12813 61.68229Q66.12813 63.791664 66.62813 64.49479Q67.12813 65.197914 67.84688 65.197914Q68.58125 65.197914 69.06563 64.49479Q69.56563 63.791664 69.56563 61.68229Q69.56563 59.55729 69.06563 58.86979Q68.58125 58.166664 67.83125 58.166664Q67.1125 58.166664 66.675 58.77604Q66.12813 59.55729 66.12813 61.68229Z" fill-rule="nonzero"/><path fill="#000000" d="M154.55598 316.4344L154.55598 317.45L148.86848 317.45Q148.86848 317.075 148.99348 316.71564Q149.21223 316.1375 149.68098 315.575Q150.16536 315.0125 151.07161 314.27814Q152.47786 313.1219 152.96223 312.45Q153.46223 311.77814 153.46223 311.1844Q153.46223 310.5594 153.00911 310.1375Q152.55598 309.7 151.83723 309.7Q151.07161 309.7 150.61848 310.15314Q150.16536 310.60626 150.14973 311.41876L149.07161 311.3094Q149.18098 310.09064 149.89973 309.46564Q150.63411 308.825 151.86848 308.825Q153.10286 308.825 153.82161 309.5125Q154.54036 310.2 154.54036 311.21564Q154.54036 311.73126 154.32161 312.23126Q154.11848 312.71564 153.61848 313.27814Q153.13411 313.825 152.00911 314.77814Q151.05598 315.575 150.77473 315.8719Q150.50911 316.15314 150.33723 316.4344L154.55598 316.4344ZM156.00911 313.21564Q156.00911 311.6844 156.32161 310.7625Q156.63411 309.825 157.24348 309.325Q157.86848 308.825 158.80598 308.825Q159.49348 308.825 160.00911 309.10626Q160.54036 309.3875 160.88411 309.91876Q161.22786 310.4344 161.41536 311.1844Q161.60286 311.9344 161.60286 313.21564Q161.60286 314.73126 161.29036 315.65314Q160.99348 316.575 160.36848 317.09064Q159.75911 317.59064 158.80598 317.59064Q157.57161 317.59064 156.85286 316.7Q156.00911 315.6375 156.00911 313.21564ZM157.08723 313.21564Q157.08723 315.325 157.58723 316.02814Q158.08723 316.73126 158.80598 316.73126Q159.54036 316.73126 160.02473 316.02814Q160.52473 315.325 160.52473 313.21564Q160.52473 311.09064 160.02473 310.40314Q159.54036 309.7 158.79036 309.7Q158.07161 309.7 157.63411 310.3094Q157.08723 311.09064 157.08723 313.21564ZM168.55598 316.4344L168.55598 317.45L162.86848 317.45Q162.86848 317.075 162.99348 316.71564Q163.21223 316.1375 163.68098 315.575Q164.16536 315.0125 165.07161 314.27814Q166.47786 313.1219 166.96223 312.45Q167.46223 311.77814 167.46223 311.1844Q167.46223 310.5594 167.00911 310.1375Q166.55598 309.7 165.83723 309.7Q165.07161 309.7 164.61848 310.15314Q164.16536 310.60626 164.14973 311.41876L163.07161 311.3094Q163.18098 310.09064 163.89973 309.46564Q164.63411 308.825 165.86848 308.825Q167.10286 308.825 167.82161 309.5125Q168.54036 310.2 168.54036 311.21564Q168.54036 311.73126 168.32161 312.23126Q168.11848 312.71564 167.61848 313.27814Q167.13411 313.825 166.00911 314.77814Q165.05598 315.575 164.77473 315.8719Q164.50911 316.15314 164.33723 316.4344L168.55598 316.4344ZM175.55598 316.4344L175.55598 317.45L169.86848 317.45Q169.86848 317.075 169.99348 316.71564Q170.21223 316.1375 170.68098 315.575Q171.16536 315.0125 172.07161 314.27814Q173.47786 313.1219 173.96223 312.45Q174.46223 311.77814 174.46223 311.1844Q174.46223 310.5594 174.00911 310.1375Q173.55598 309.7 172.83723 309.7Q172.07161 309.7 171.61848 310.15314Q171.16536 310.60626 171.14973 311.41876L170.07161 311.3094Q170.18098 310.09064 170.89973 309.46564Q171.63411 308.825 172.86848 308.825Q174.10286 308.825 174.82161 309.5125Q175.54036 310.2 175.54036 311.21564Q175.54036 311.73126 175.32161 312.23126Q175.11848 312.71564 174.61848 313.27814Q174.13411 313.825 173.00911 314.77814Q172.05598 315.575 171.77473 315.8719Q171.50911 316.15314 171.33723 316.4344L175.55598 316.4344ZM176.88411 314.8719L176.88411 313.8094L180.13411 313.8094L180.13411 314.8719L176.88411 314.8719ZM181.00911 313.21564Q181.00911 311.6844 181.32161 310.7625Q181.63411 309.825 182.24348 309.325Q182.86848 308.825 183.80598 308.825Q184.49348 308.825 185.00911 309.10626Q185.54036 309.3875 185.88411 309.91876Q186.22786 310.4344 186.41536 311.1844Q186.60286 311.9344 186.60286 313.21564Q186.60286 314.73126 186.29036 315.65314Q185.99348 316.575 185.36848 317.09064Q184.75911 317.59064 183.80598 317.59064Q182.57161 317.59064 181.85286 316.7Q181.00911 315.6375 181.00911 313.21564ZM182.08723 313.21564Q182.08723 315.325 182.58723 316.02814Q183.08723 316.73126 183.80598 316.73126Q184.54036 316.73126 185.02473 316.02814Q185.52473 315.325 185.52473 313.21564Q185.52473 311.09064 185.02473 310.40314Q184.54036 309.7 183.79036 309.7Q183.07161 309.7 182.63411 310.3094Q182.08723 311.09064 182.08723 313.21564ZM191.97786 317.45L190.93098 317.45L190.93098 310.73126Q190.54036 311.09064 189.91536 311.46564Q189.30598 311.825 188.82161 311.9969L188.82161 310.98126Q189.69661 310.5594 190.35286 309.98126Q191.02473 309.3875 191.30598 308.825L191.97786 308.825L191.97786 317.45ZM194.88411 314.8719L194.88411 313.8094L198.13411 313.8094L198.13411 314.8719L194.88411 314.8719ZM199.00911 313.21564Q199.00911 311.6844 199.32161 310.7625Q199.63411 309.825 200.24348 309.325Q200.86848 308.825 201.80598 308.825Q202.49348 308.825 203.00911 309.10626Q203.54036 309.3875 203.88411 309.91876Q204.22786 310.4344 204.41536 311.1844Q204.60286 311.9344 204.60286 313.21564Q204.60286 314.73126 204.29036 315.65314Q203.99348 316.575 203.36848 317.09064Q202.75911 317.59064 201.80598 317.59064Q200.57161 317.59064 199.85286 316.7Q199.00911 315.6375 199.00911 313.21564ZM200.08723 313.21564Q200.08723 315.325 200.58723 316.02814Q201.08723 316.73126 201.80598 316.73126Q202.54036 316.73126 203.02473 316.02814Q203.52473 315.325 203.52473 313.21564Q203.52473 311.09064 203.02473 310.40314Q202.54036 309.7 201.79036 309.7Q201.07161 309.7 200.63411 310.3094Q200.08723 311.09064 200.08723 313.21564ZM209.97786 317.45L208.93098 317.45L208.93098 310.73126Q208.54036 311.09064 207.91536 311.46564Q207.30598 311.825 206.82161 311.9969L206.82161 310.98126Q207.69661 310.5594 208.35286 309.98126Q209.02473 309.3875 209.30598 308.825L209.97786 308.825L209.97786 317.45Z" fill-rule="nonzero"/><path fill="#000000" d="M282.36334 316.4344L282.36334 317.45L276.67584 317.45Q276.67584 317.075 276.80084 316.71564Q277.0196 316.1375 277.48834 315.575Q277.97272 315.0125 278.87897 314.27814Q280.28522 313.1219 280.7696 312.45Q281.2696 311.77814 281.2696 311.1844Q281.2696 310.5594 280.81647 310.1375Q280.36334 309.7 279.6446 309.7Q278.87897 309.7 278.42584 310.15314Q277.97272 310.60626 277.9571 311.41876L276.87897 311.3094Q276.98834 310.09064 277.7071 309.46564Q278.44147 308.825 279.67584 308.825Q280.91022 308.825 281.62897 309.5125Q282.34772 310.2 282.34772 311.21564Q282.34772 311.73126 282.12897 312.23126Q281.92584 312.71564 281.42584 313.27814Q280.94147 313.825 279.81647 314.77814Q278.86334 315.575 278.5821 315.8719Q278.31647 316.15314 278.1446 316.4344L282.36334 316.4344ZM283.81647 313.21564Q283.81647 311.6844 284.12897 310.7625Q284.44147 309.825 285.05084 309.325Q285.67584 308.825 286.61334 308.825Q287.30084 308.825 287.81647 309.10626Q288.34772 309.3875 288.69147 309.91876Q289.03522 310.4344 289.22272 311.1844Q289.41022 311.9344 289.41022 313.21564Q289.41022 314.73126 289.09772 315.65314Q288.80084 316.575 288.17584 317.09064Q287.56647 317.59064 286.61334 317.59064Q285.37897 317.59064 284.66022 316.7Q283.81647 315.6375 283.81647 313.21564ZM284.8946 313.21564Q284.8946 315.325 285.3946 316.02814Q285.8946 316.73126 286.61334 316.73126Q287.34772 316.73126 287.8321 316.02814Q288.3321 315.325 288.3321 313.21564Q288.3321 311.09064 287.8321 310.40314Q287.34772 309.7 286.59772 309.7Q285.87897 309.7 285.44147 310.3094Q284.8946 311.09064 284.8946 313.21564ZM296.36334 316.4344L296.36334 317.45L290.67584 317.45Q290.67584 317.075 290.80084 316.71564Q291.0196 316.1375 291.48834 315.575Q291.97272 315.0125 292.87897 314.27814Q294.28522 313.1219 294.7696 312.45Q295.2696 311.77814 295.2696 311.1844Q295.2696 310.5594 294.81647 310.1375Q294.36334 309.7 293.6446 309.7Q292.87897 309.7 292.42584 310.15314Q291.97272 310.60626 291.9571 311.41876L290.87897 311.3094Q290.98834 310.09064 291.7071 309.46564Q292.44147 308.825 293.67584 308.825Q294.91022 308.825 295.62897 309.5125Q296.34772 310.2 296.34772 311.21564Q296.34772 311.73126 296.12897 312.23126Q295.92584 312.71564 295.42584 313.27814Q294.94147 313.825 293.81647 314.77814Q292.86334 315.575 292.5821 315.8719Q292.31647 316.15314 292.1446 316.4344L296.36334 316.4344ZM303.36334 316.4344L303.36334 317.45L297.67584 317.45Q297.67584 317.075 297.80084 316.71564Q298.0196 316.1375 298.48834 315.575Q298.97272 315.0125 299.87897 314.27814Q301.28522 313.1219 301.7696 312.45Q302.2696 311.77814 302.2696 311.1844Q302.2696 310.5594 301.81647 310.1375Q301.36334 309.7 300.6446 309.7Q299.87897 309.7 299.42584 310.15314Q298.97272 310.60626 298.9571 311.41876L297.87897 311.3094Q297.98834 310.09064 298.7071 309.46564Q299.44147 308.825 300.67584 308.825Q301.91022 308.825 302.62897 309.5125Q303.34772 310.2 303.34772 311.21564Q303.34772 311.73126 303.12897 312.23126Q302.92584 312.71564 302.42584 313.27814Q301.94147 313.825 300.81647 314.77814Q299.86334 315.575 299.5821 315.8719Q299.31647 316.15314 299.1446 316.4344L303.36334 316.4344ZM304.69147 314.8719L304.69147 313.8094L307.94147 313.8094L307.94147 314.8719L304.69147 314.8719ZM308.81647 313.21564Q308.81647 311.6844 309.12897 310.7625Q309.44147 309.825 310.05084 309.325Q310.67584 308.825 311.61334 308.825Q312.30084 308.825 312.81647 309.10626Q313.34772 309.3875 313.69147 309.91876Q314.03522 310.4344 314.22272 311.1844Q314.41022 311.9344 314.41022 313.21564Q314.41022 314.73126 314.09772 315.65314Q313.80084 316.575 313.17584 317.09064Q312.56647 317.59064 311.61334 317.59064Q310.37897 317.59064 309.66022 316.7Q308.81647 315.6375 308.81647 313.21564ZM309.8946 313.21564Q309.8946 315.325 310.3946 316.02814Q310.8946 316.73126 311.61334 316.73126Q312.34772 316.73126 312.8321 316.02814Q313.3321 315.325 313.3321 313.21564Q313.3321 311.09064 312.8321 310.40314Q312.34772 309.7 311.59772 309.7Q310.87897 309.7 310.44147 310.3094Q309.8946 311.09064 309.8946 313.21564ZM315.87897 309.98126L315.87897 308.96564L321.44147 308.96564L321.44147 309.79376Q320.62897 310.66876 319.81647 312.1219Q319.0196 313.5594 318.5821 315.09064Q318.25397 316.16876 318.17584 317.45L317.0821 317.45Q317.09772 316.4344 317.47272 314.9969Q317.86334 313.5594 318.56647 312.23126Q319.28522 310.90314 320.09772 309.98126L315.87897 309.98126ZM322.69147 314.8719L322.69147 313.8094L325.94147 313.8094L325.94147 314.8719L322.69147 314.8719ZM326.81647 313.21564Q326.81647 311.6844 327.12897 310.7625Q327.44147 309.825 328.05084 309.325Q328.67584 308.825 329.61334 308.825Q330.30084 308.825 330.81647 309.10626Q331.34772 309.3875 331.69147 309.91876Q332.03522 310.4344 332.22272 311.1844Q332.41022 311.9344 332.41022 313.21564Q332.41022 314.73126 332.09772 315.65314Q331.80084 316.575 331.17584 317.09064Q330.56647 317.59064 329.61334 317.59064Q328.37897 317.59064 327.66022 316.7Q326.81647 315.6375 326.81647 313.21564ZM327.8946 313.21564Q327.8946 315.325 328.3946 316.02814Q328.8946 316.73126 329.61334 316.73126Q330.34772 316.73126 330.8321 316.02814Q331.3321 315.325 331.3321 313.21564Q331.3321 311.09064 330.8321 310.40314Q330.34772 309.7 329.59772 309.7Q328.87897 309.7 328.44147 310.3094Q327.8946 311.09064 327.8946 313.21564ZM337.78522 317.45L336.73834 317.45L336.73834 310.73126Q336.34772 311.09064 335.72272 311.46564Q335.11334 311.825 334.62897 311.9969L334.62897 310.98126Q335.50397 310.5594 336.16022 309.98126Q336.8321 309.3875 337.11334 308.825L337.78522 308.825L337.78522 317.45Z" fill-rule="nonzero"/><path fill="#000000" d="M412.28903 316.4344L412.28903 317.45L406.60153 317.45Q406.60153 317.075 406.72653 316.71564Q406.94528 316.1375 407.41403 315.575Q407.8984 315.0125 408.80466 314.27814Q410.2109 313.1219 410.69528 312.45Q411.19528 311.77814 411.19528 311.1844Q411.19528 310.5594 410.74216 310.1375Q410.28903 309.7 409.57028 309.7Q408.80466 309.7 408.35153 310.15314Q407.8984 310.60626 407.88278 311.41876L406.80466 311.3094Q406.91403 310.09064 407.63278 309.46564Q408.36716 308.825 409.60153 308.825Q410.8359 308.825 411.55466 309.5125Q412.2734 310.2 412.2734 311.21564Q412.2734 311.73126 412.05466 312.23126Q411.85153 312.71564 411.35153 313.27814Q410.86716 313.825 409.74216 314.77814Q408.78903 315.575 408.50778 315.8719Q408.24216 316.15314 408.07028 316.4344L412.28903 316.4344ZM413.74216 313.21564Q413.74216 311.6844 414.05466 310.7625Q414.36716 309.825 414.97653 309.325Q415.60153 308.825 416.53903 308.825Q417.22653 308.825 417.74216 309.10626Q418.2734 309.3875 418.61716 309.91876Q418.9609 310.4344 419.1484 311.1844Q419.3359 311.9344 419.3359 313.21564Q419.3359 314.73126 419.0234 315.65314Q418.72653 316.575 418.10153 317.09064Q417.49216 317.59064 416.53903 317.59064Q415.30466 317.59064 414.5859 316.7Q413.74216 315.6375 413.74216 313.21564ZM414.82028 313.21564Q414.82028 315.325 415.32028 316.02814Q415.82028 316.73126 416.53903 316.73126Q417.2734 316.73126 417.75778 316.02814Q418.25778 315.325 418.25778 313.21564Q418.25778 311.09064 417.75778 310.40314Q417.2734 309.7 416.5234 309.7Q415.80466 309.7 415.36716 310.3094Q414.82028 311.09064 414.82028 313.21564ZM426.28903 316.4344L426.28903 317.45L420.60153 317.45Q420.60153 317.075 420.72653 316.71564Q420.94528 316.1375 421.41403 315.575Q421.8984 315.0125 422.80466 314.27814Q424.2109 313.1219 424.69528 312.45Q425.19528 311.77814 425.19528 311.1844Q425.19528 310.5594 424.74216 310.1375Q424.28903 309.7 423.57028 309.7Q422.80466 309.7 422.35153 310.15314Q421.8984 310.60626 421.88278 311.41876L420.80466 311.3094Q420.91403 310.09064 421.63278 309.46564Q422.36716 308.825 423.60153 308.825Q424.8359 308.825 425.55466 309.5125Q426.2734 310.2 426.2734 311.21564Q426.2734 311.73126 426.05466 312.23126Q425.85153 312.71564 425.35153 313.27814Q424.86716 313.825 423.74216 314.77814Q422.78903 315.575 422.50778 315.8719Q422.24216 316.15314 422.07028 316.4344L426.28903 316.4344ZM427.74216 315.1844L428.80466 315.04376Q428.97653 315.9344 429.41403 316.34064Q429.85153 316.73126 430.47653 316.73126Q431.22653 316.73126 431.74216 316.21564Q432.25778 315.7 432.25778 314.9344Q432.25778 314.21564 431.7734 313.7469Q431.30466 313.2625 430.57028 313.2625Q430.2734 313.2625 429.82028 313.3875L429.94528 312.45Q430.05466 312.46564 430.11716 312.46564Q430.78903 312.46564 431.32028 312.1219Q431.86716 311.7625 431.86716 311.02814Q431.86716 310.45 431.47653 310.075Q431.0859 309.6844 430.4609 309.6844Q429.85153 309.6844 429.42966 310.075Q429.0234 310.46564 428.91403 311.23126L427.85153 311.04376Q428.03903 309.9969 428.72653 309.41876Q429.41403 308.825 430.42966 308.825Q431.13278 308.825 431.72653 309.1375Q432.32028 309.4344 432.63278 309.95Q432.94528 310.46564 432.94528 311.0594Q432.94528 311.60626 432.6484 312.075Q432.35153 312.52814 431.7734 312.79376Q432.5234 312.96564 432.94528 313.52814Q433.36716 314.075 433.36716 314.91876Q433.36716 316.04376 432.53903 316.825Q431.72653 317.60626 430.47653 317.60626Q429.35153 317.60626 428.60153 316.9344Q427.85153 316.2469 427.74216 315.1844ZM434.61716 314.8719L434.61716 313.8094L437.86716 313.8094L437.86716 314.8719L434.61716 314.8719ZM438.74216 313.21564Q438.74216 311.6844 439.05466 310.7625Q439.36716 309.825 439.97653 309.325Q440.60153 308.825 441.53903 308.825Q442.22653 308.825 442.74216 309.10626Q443.2734 309.3875 443.61716 309.91876Q443.9609 310.4344 444.1484 311.1844Q444.3359 311.9344 444.3359 313.21564Q444.3359 314.73126 444.0234 315.65314Q443.72653 316.575 443.10153 317.09064Q442.49216 317.59064 441.53903 317.59064Q440.30466 317.59064 439.5859 316.7Q438.74216 315.6375 438.74216 313.21564ZM439.82028 313.21564Q439.82028 315.325 440.32028 316.02814Q440.82028 316.73126 441.53903 316.73126Q442.2734 316.73126 442.75778 316.02814Q443.25778 315.325 443.25778 313.21564Q443.25778 311.09064 442.75778 310.40314Q442.2734 309.7 441.5234 309.7Q440.80466 309.7 440.36716 310.3094Q439.82028 311.09064 439.82028 313.21564ZM449.7109 317.45L448.66403 317.45L448.66403 310.73126Q448.2734 311.09064 447.6484 311.46564Q447.03903 311.825 446.55466 311.9969L446.55466 310.98126Q447.42966 310.5594 448.0859 309.98126Q448.75778 309.3875 449.03903 308.825L449.7109 308.825L449.7109 317.45ZM452.61716 314.8719L452.61716 313.8094L455.86716 313.8094L455.86716 314.8719L452.61716 314.8719ZM456.74216 313.21564Q456.74216 311.6844 457.05466 310.7625Q457.36716 309.825 457.97653 309.325Q458.60153 308.825 459.53903 308.825Q460.22653 308.825 460.74216 309.10626Q461.2734 309.3875 461.61716 309.91876Q461.9609 310.4344 462.1484 311.1844Q462.3359 311.9344 462.3359 313.21564Q462.3359 314.73126 462.0234 315.65314Q461.72653 316.575 461.10153 317.09064Q460.49216 317.59064 459.53903 317.59064Q458.30466 317.59064 457.5859 316.7Q456.74216 315.6375 456.74216 313.21564ZM457.82028 313.21564Q457.82028 315.325 458.32028 316.02814Q458.82028 316.73126 459.53903 316.73126Q460.2734 316.73126 460.75778 316.02814Q461.25778 315.325 461.25778 313.21564Q461.25778 311.09064 460.75778 310.40314Q460.2734 309.7 459.5234 309.7Q458.80466 309.7 458.36716 310.3094Q457.82028 311.09064 457.82028 313.21564ZM467.7109 317.45L466.66403 317.45L466.66403 310.73126Q466.2734 311.09064 465.6484 311.46564Q465.03903 311.825 464.55466 311.9969L464.55466 310.98126Q465.42966 310.5594 466.0859 309.98126Q466.75778 309.3875 467.03903 308.825L467.7109 308.825L467.7109 317.45Z" fill-rule="nonzero"/><path fill="#000000" d="M540.0964 316.4344L540.0964 317.45L534.4089 317.45Q534.4089 317.075 534.5339 316.71564Q534.7526 316.1375 535.2214 315.575Q535.70575 315.0125 536.612 314.27814Q538.01825 313.1219 538.5026 312.45Q539.0026 311.77814 539.0026 311.1844Q539.0026 310.5594 538.5495 310.1375Q538.0964 309.7 537.3776 309.7Q536.612 309.7 536.1589 310.15314Q535.70575 310.60626 535.6901 311.41876L534.612 311.3094Q534.7214 310.09064 535.4401 309.46564Q536.1745 308.825 537.4089 308.825Q538.64325 308.825 539.362 309.5125Q540.08075 310.2 540.08075 311.21564Q540.08075 311.73126 539.862 312.23126Q539.6589 312.71564 539.1589 313.27814Q538.6745 313.825 537.5495 314.77814Q536.5964 315.575 536.3151 315.8719Q536.0495 316.15314 535.8776 316.4344L540.0964 316.4344ZM541.5495 313.21564Q541.5495 311.6844 541.862 310.7625Q542.1745 309.825 542.7839 309.325Q543.4089 308.825 544.3464 308.825Q545.0339 308.825 545.5495 309.10626Q546.08075 309.3875 546.4245 309.91876Q546.76825 310.4344 546.95575 311.1844Q547.14325 311.9344 547.14325 313.21564Q547.14325 314.73126 546.83075 315.65314Q546.5339 316.575 545.9089 317.09064Q545.2995 317.59064 544.3464 317.59064Q543.112 317.59064 542.39325 316.7Q541.5495 315.6375 541.5495 313.21564ZM542.6276 313.21564Q542.6276 315.325 543.1276 316.02814Q543.6276 316.73126 544.3464 316.73126Q545.08075 316.73126 545.5651 316.02814Q546.0651 315.325 546.0651 313.21564Q546.0651 311.09064 545.5651 310.40314Q545.08075 309.7 544.33075 309.7Q543.612 309.7 543.1745 310.3094Q542.6276 311.09064 542.6276 313.21564ZM554.0964 316.4344L554.0964 317.45L548.4089 317.45Q548.4089 317.075 548.5339 316.71564Q548.7526 316.1375 549.2214 315.575Q549.70575 315.0125 550.612 314.27814Q552.01825 313.1219 552.5026 312.45Q553.0026 311.77814 553.0026 311.1844Q553.0026 310.5594 552.5495 310.1375Q552.0964 309.7 551.3776 309.7Q550.612 309.7 550.1589 310.15314Q549.70575 310.60626 549.6901 311.41876L548.612 311.3094Q548.7214 310.09064 549.4401 309.46564Q550.1745 308.825 551.4089 308.825Q552.64325 308.825 553.362 309.5125Q554.08075 310.2 554.08075 311.21564Q554.08075 311.73126 553.862 312.23126Q553.6589 312.71564 553.1589 313.27814Q552.6745 313.825 551.5495 314.77814Q550.5964 315.575 550.3151 315.8719Q550.0495 316.15314 549.8776 316.4344L554.0964 316.4344ZM555.5495 315.1844L556.612 315.04376Q556.7839 315.9344 557.2214 316.34064Q557.6589 316.73126 558.2839 316.73126Q559.0339 316.73126 559.5495 316.21564Q560.0651 315.7 560.0651 314.9344Q560.0651 314.21564 559.58075 313.7469Q559.112 313.2625 558.3776 313.2625Q558.08075 313.2625 557.6276 313.3875L557.7526 312.45Q557.862 312.46564 557.9245 312.46564Q558.5964 312.46564 559.1276 312.1219Q559.6745 311.7625 559.6745 311.02814Q559.6745 310.45 559.2839 310.075Q558.89325 309.6844 558.26825 309.6844Q557.6589 309.6844 557.237 310.075Q556.83075 310.46564 556.7214 311.23126L555.6589 311.04376Q555.8464 309.9969 556.5339 309.41876Q557.2214 308.825 558.237 308.825Q558.9401 308.825 559.5339 309.1375Q560.1276 309.4344 560.4401 309.95Q560.7526 310.46564 560.7526 311.0594Q560.7526 311.60626 560.45575 312.075Q560.1589 312.52814 559.58075 312.79376Q560.33075 312.96564 560.7526 313.52814Q561.1745 314.075 561.1745 314.91876Q561.1745 316.04376 560.3464 316.825Q559.5339 317.60626 558.2839 317.60626Q557.1589 317.60626 556.4089 316.9344Q555.6589 316.2469 555.5495 315.1844ZM562.4245 314.8719L562.4245 313.8094L565.6745 313.8094L565.6745 314.8719L562.4245 314.8719ZM566.5495 313.21564Q566.5495 311.6844 566.862 310.7625Q567.1745 309.825 567.7839 309.325Q568.4089 308.825 569.3464 308.825Q570.0339 308.825 570.5495 309.10626Q571.08075 309.3875 571.4245 309.91876Q571.76825 310.4344 571.95575 311.1844Q572.14325 311.9344 572.14325 313.21564Q572.14325 314.73126 571.83075 315.65314Q571.5339 316.575 570.9089 317.09064Q570.2995 317.59064 569.3464 317.59064Q568.112 317.59064 567.39325 316.7Q566.5495 315.6375 566.5495 313.21564ZM567.6276 313.21564Q567.6276 315.325 568.1276 316.02814Q568.6276 316.73126 569.3464 316.73126Q570.08075 316.73126 570.5651 316.02814Q571.0651 315.325 571.0651 313.21564Q571.0651 311.09064 570.5651 310.40314Q570.08075 309.7 569.33075 309.7Q568.612 309.7 568.1745 310.3094Q567.6276 311.09064 567.6276 313.21564ZM573.612 309.98126L573.612 308.96564L579.1745 308.96564L579.1745 309.79376Q578.362 310.66876 577.5495 312.1219Q576.7526 313.5594 576.3151 315.09064Q575.987 316.16876 575.9089 317.45L574.8151 317.45Q574.83075 316.4344 575.20575 314.9969Q575.5964 313.5594 576.2995 312.23126Q577.01825 310.90314 577.83075 309.98126L573.612 309.98126ZM580.4245 314.8719L580.4245 313.8094L583.6745 313.8094L583.6745 314.8719L580.4245 314.8719ZM584.5495 313.21564Q584.5495 311.6844 584.862 310.7625Q585.1745 309.825 585.7839 309.325Q586.4089 308.825 587.3464 308.825Q588.0339 308.825 588.5495 309.10626Q589.08075 309.3875 589.4245 309.91876Q589.76825 310.4344 589.95575 311.1844Q590.14325 311.9344 590.14325 313.21564Q590.14325 314.73126 589.83075 315.65314Q589.5339 316.575 588.9089 317.09064Q588.2995 317.59064 587.3464 317.59064Q586.112 317.59064 585.39325 316.7Q584.5495 315.6375 584.5495 313.21564ZM585.6276 313.21564Q585.6276 315.325 586.1276 316.02814Q586.6276 316.73126 587.3464 316.73126Q588.08075 316.73126 588.5651 316.02814Q589.0651 315.325 589.0651 313.21564Q589.0651 311.09064 588.5651 310.40314Q588.08075 309.7 587.33075 309.7Q586.612 309.7 586.1745 310.3094Q585.6276 311.09064 585.6276 313.21564ZM595.51825 317.45L594.4714 317.45L594.4714 310.73126Q594.08075 311.09064 593.45575 311.46564Q592.8464 311.825 592.362 311.9969L592.362 310.98126Q593.237 310.5594 593.89325 309.98126Q594.5651 309.3875 594.8464 308.825L595.51825 308.825L595.51825 317.45Z" fill-rule="nonzero"/><path fill="#757575" d="M20.08125 37.55L20.08125 23.2375L22.01875 23.2375L29.534374 34.471874L29.534374 23.2375L31.346874 23.2375L31.346874 37.55L29.409374 37.55L21.89375 26.3L21.89375 37.55L20.08125 37.55ZM39.971874 34.20625L41.784374 34.440624Q41.3625 36.01875 40.190624 36.909374Q39.034374 37.784374 37.221874 37.784374Q34.95625 37.784374 33.6125 36.39375Q32.284374 34.9875 32.284374 32.45625Q32.284374 29.83125 33.628124 28.39375Q34.971874 26.940624 37.128124 26.940624Q39.20625 26.940624 40.51875 28.3625Q41.846874 29.76875 41.846874 32.346874Q41.846874 32.503124 41.83125 32.815624L34.096874 32.815624Q34.190624 34.51875 35.065624 35.425Q35.940624 36.33125 37.2375 36.33125Q38.20625 36.33125 38.878124 35.83125Q39.565624 35.315624 39.971874 34.20625ZM34.190624 31.3625L39.9875 31.3625Q39.878124 30.065624 39.33125 29.409374Q38.4875 28.39375 37.14375 28.39375Q35.940624 28.39375 35.1125 29.20625Q34.284374 30.003124 34.190624 31.3625ZM50.971874 34.20625L52.784374 34.440624Q52.3625 36.01875 51.190624 36.909374Q50.034374 37.784374 48.221874 37.784374Q45.95625 37.784374 44.6125 36.39375Q43.284374 34.9875 43.284374 32.45625Q43.284374 29.83125 44.628124 28.39375Q45.971874 26.940624 48.128124 26.940624Q50.20625 26.940624 51.51875 28.3625Q52.846874 29.76875 52.846874 32.346874Q52.846874 32.503124 52.83125 32.815624L45.096874 32.815624Q45.190624 34.51875 46.065624 35.425Q46.940624 36.33125 48.2375 36.33125Q49.20625 36.33125 49.878124 35.83125Q50.565624 35.315624 50.971874 34.20625ZM45.190624 31.3625L50.9875 31.3625Q50.878124 30.065624 50.33125 29.409374Q49.4875 28.39375 48.14375 28.39375Q46.940624 28.39375 46.1125 29.20625Q45.284374 30.003124 45.190624 31.3625ZM61.596874 37.55L61.596874 36.2375Q60.6125 37.784374 58.690624 37.784374Q57.45625 37.784374 56.409374 37.096874Q55.378124 36.409374 54.8 35.190624Q54.2375 33.971874 54.2375 32.378124Q54.2375 30.815624 54.753124 29.55Q55.26875 28.284374 56.3 27.6125Q57.346874 26.940624 58.6125 26.940624Q59.55 26.940624 60.284374 27.346874Q61.01875 27.7375 61.4875 28.3625L61.4875 23.2375L63.221874 23.2375L63.221874 37.55L61.596874 37.55ZM56.034374 32.378124Q56.034374 34.3625 56.878124 35.346874Q57.721874 36.33125 58.8625 36.33125Q60.01875 36.33125 60.815624 35.39375Q61.628124 34.45625 61.628124 32.51875Q61.628124 30.39375 60.8 29.39375Q59.9875 28.39375 58.784374 28.39375Q57.6125 28.39375 56.815624 29.3625Q56.034374 30.315624 56.034374 32.378124ZM65.83125 37.55L65.83125 23.2375L67.58125 23.2375L67.58125 37.55L65.83125 37.55ZM76.97188 34.20625L78.78438 34.440624Q78.3625 36.01875 77.19063 36.909374Q76.03438 37.784374 74.22188 37.784374Q71.95625 37.784374 70.6125 36.39375Q69.28438 34.9875 69.28438 32.45625Q69.28438 29.83125 70.62813 28.39375Q71.97188 26.940624 74.12813 26.940624Q76.20625 26.940624 77.51875 28.3625Q78.84688 29.76875 78.84688 32.346874Q78.84688 32.503124 78.83125 32.815624L71.09688 32.815624Q71.19063 34.51875 72.06563 35.425Q72.94063 36.33125 74.2375 36.33125Q75.20625 36.33125 75.87813 35.83125Q76.56563 35.315624 76.97188 34.20625ZM71.19063 31.3625L76.9875 31.3625Q76.87813 30.065624 76.33125 29.409374Q75.4875 28.39375 74.14375 28.39375Q72.94063 28.39375 72.1125 29.20625Q71.28438 30.003124 71.19063 31.3625ZM80.15938 34.45625L81.90938 34.175Q82.05 35.221874 82.72188 35.784374Q83.39375 36.33125 84.59688 36.33125Q85.8 36.33125 86.37813 35.846874Q86.97188 35.346874 86.97188 34.690624Q86.97188 34.096874 86.45625 33.753124Q86.09688 33.51875 84.65938 33.159374Q82.72188 32.659374 81.97188 32.315624Q81.2375 31.95625 80.84688 31.33125Q80.45625 30.690624 80.45625 29.925Q80.45625 29.2375 80.76875 28.64375Q81.09688 28.05 81.64375 27.659374Q82.05 27.3625 82.75313 27.159374Q83.47188 26.940624 84.28438 26.940624Q85.50313 26.940624 86.425 27.3Q87.34688 27.64375 87.78438 28.253124Q88.22188 28.846874 88.39375 29.846874L86.675 30.08125Q86.55 29.284374 85.9875 28.846874Q85.425 28.39375 84.40938 28.39375Q83.19063 28.39375 82.675 28.8Q82.15938 29.190624 82.15938 29.721874Q82.15938 30.065624 82.37813 30.346874Q82.58125 30.628124 83.05 30.815624Q83.31563 30.909374 84.59688 31.253124Q86.47188 31.753124 87.20625 32.08125Q87.94063 32.39375 88.3625 33.003124Q88.78438 33.596874 88.78438 34.503124Q88.78438 35.378124 88.26875 36.159374Q87.75313 36.940624 86.78438 37.3625Q85.81563 37.784374 84.59688 37.784374Q82.58125 37.784374 81.51875 36.940624Q80.45625 36.096874 80.15938 34.45625ZM103.64375 33.753124L105.3625 33.971874Q105.08125 35.76875 103.90938 36.784374Q102.75313 37.784374 101.05 37.784374Q98.925 37.784374 97.62813 36.39375Q96.33125 35.003124 96.33125 32.409374Q96.33125 30.721874 96.87813 29.471874Q97.44063 28.20625 98.58125 27.58125Q99.72188 26.940624 101.06563 26.940624Q102.75313 26.940624 103.81563 27.8Q104.89375 28.659374 105.20625 30.221874L103.4875 30.4875Q103.25313 29.440624 102.62813 28.925Q102.00313 28.39375 101.12813 28.39375Q99.8 28.39375 98.97188 29.346874Q98.14375 30.3 98.14375 32.346874Q98.14375 34.440624 98.94063 35.39375Q99.7375 36.33125 101.03438 36.33125Q102.06563 36.33125 102.75313 35.70625Q103.45625 35.065624 103.64375 33.753124ZM106.8625 37.55L106.8625 23.2375L108.62813 23.2375L108.62813 28.3625Q109.8625 26.940624 111.7375 26.940624Q112.87813 26.940624 113.72188 27.39375Q114.58125 27.846874 114.94063 28.659374Q115.31563 29.45625 115.31563 30.971874L115.31563 37.55L113.56563 37.55L113.56563 30.971874Q113.56563 29.659374 112.9875 29.065624Q112.40938 28.45625 111.37813 28.45625Q110.59688 28.45625 109.89375 28.8625Q109.20625 29.26875 108.90938 29.971874Q108.62813 30.659374 108.62813 31.878124L108.62813 37.55L106.8625 37.55ZM123.64375 36.26875Q122.65938 37.096874 121.75313 37.440624Q120.84688 37.784374 119.81563 37.784374Q118.1125 37.784374 117.19063 36.95625Q116.26875 36.1125 116.26875 34.815624Q116.26875 34.05 116.6125 33.425Q116.97188 32.8 117.53438 32.425Q118.09688 32.034374 118.8 31.83125Q119.31563 31.70625 120.3625 31.565624Q122.4875 31.315624 123.4875 30.971874Q123.50313 30.6125 123.50313 30.503124Q123.50313 29.440624 123.00313 28.9875Q122.33125 28.39375 121.00313 28.39375Q119.75313 28.39375 119.15938 28.83125Q118.58125 29.26875 118.3 30.378124L116.58125 30.14375Q116.81563 29.034374 117.34688 28.3625Q117.87813 27.675 118.89375 27.315624Q119.90938 26.940624 121.25313 26.940624Q122.58125 26.940624 123.40938 27.253124Q124.2375 27.565624 124.62813 28.05Q125.01875 28.51875 125.175 29.2375Q125.26875 29.690624 125.26875 30.8625L125.26875 33.20625Q125.26875 35.659374 125.37813 36.315624Q125.4875 36.95625 125.83125 37.55L123.9875 37.55Q123.72188 37.003124 123.64375 36.26875ZM123.4875 32.346874Q122.53438 32.7375 120.6125 33.003124Q119.53438 33.159374 119.08125 33.3625Q118.64375 33.55 118.39375 33.925Q118.14375 34.3 118.14375 34.76875Q118.14375 35.471874 118.675 35.940624Q119.20625 36.409374 120.2375 36.409374Q121.25313 36.409374 122.03438 35.971874Q122.83125 35.51875 123.20625 34.753124Q123.4875 34.14375 123.4875 32.9875L123.4875 32.346874ZM127.8625 37.55L127.8625 27.175L129.45625 27.175L129.45625 28.659374Q130.59688 26.940624 132.75313 26.940624Q133.69063 26.940624 134.47188 27.284374Q135.26875 27.6125 135.65938 28.159374Q136.05 28.70625 136.20625 29.45625Q136.3 29.95625 136.3 31.175L136.3 37.55L134.53438 37.55L134.53438 31.2375Q134.53438 30.159374 134.33125 29.628124Q134.12813 29.096874 133.59688 28.784374Q133.08125 28.471874 132.37813 28.471874Q131.25313 28.471874 130.44063 29.190624Q129.62813 29.89375 129.62813 31.878124L129.62813 37.55L127.8625 37.55ZM137.55 38.409374L139.25313 38.659374Q139.3625 39.45625 139.84688 39.815624Q140.50313 40.3 141.64375 40.3Q142.8625 40.3 143.51875 39.815624Q144.19063 39.33125 144.425 38.45625Q144.56563 37.909374 144.55 36.190624Q143.39375 37.55 141.675 37.55Q139.53438 37.55 138.3625 36.003124Q137.19063 34.45625 137.19063 32.3Q137.19063 30.815624 137.72188 29.565624Q138.26875 28.315624 139.28438 27.628124Q140.31563 26.940624 141.69063 26.940624Q143.51875 26.940624 144.72188 28.425L144.72188 27.175L146.33125 27.175L146.33125 36.14375Q146.33125 38.565624 145.83125 39.565624Q145.34688 40.58125 144.26875 41.159374Q143.20625 41.753124 141.64375 41.753124Q139.8 41.753124 138.64375 40.925Q137.50313 40.096874 137.55 38.409374ZM139.00313 32.175Q139.00313 34.221874 139.81563 35.159374Q140.62813 36.096874 141.84688 36.096874Q143.05 36.096874 143.8625 35.159374Q144.69063 34.221874 144.69063 32.2375Q144.69063 30.33125 143.84688 29.3625Q143.00313 28.39375 141.81563 28.39375Q140.64375 28.39375 139.81563 29.346874Q139.00313 30.3 139.00313 32.175ZM155.97188 34.20625L157.78438 34.440624Q157.3625 36.01875 156.19063 36.909374Q155.03438 37.784374 153.22188 37.784374Q150.95625 37.784374 149.6125 36.39375Q148.28438 34.9875 148.28438 32.45625Q148.28438 29.83125 149.62813 28.39375Q150.97188 26.940624 153.12813 26.940624Q155.20625 26.940624 156.51875 28.3625Q157.84688 29.76875 157.84688 32.346874Q157.84688 32.503124 157.83125 32.815624L150.09688 32.815624Q150.19063 34.51875 151.06563 35.425Q151.94063 36.33125 153.2375 36.33125Q154.20625 36.33125 154.87813 35.83125Q155.56563 35.315624 155.97188 34.20625ZM150.19063 31.3625L155.9875 31.3625Q155.87813 30.065624 155.33125 29.409374Q154.4875 28.39375 153.14375 28.39375Q151.94063 28.39375 151.1125 29.20625Q150.28438 30.003124 150.19063 31.3625ZM166.59688 37.55L166.59688 36.2375Q165.6125 37.784374 163.69063 37.784374Q162.45625 37.784374 161.40938 37.096874Q160.37813 36.409374 159.8 35.190624Q159.2375 33.971874 159.2375 32.378124Q159.2375 30.815624 159.75313 29.55Q160.26875 28.284374 161.3 27.6125Q162.34688 26.940624 163.6125 26.940624Q164.55 26.940624 165.28438 27.346874Q166.01875 27.7375 166.4875 28.3625L166.4875 23.2375L168.22188 23.2375L168.22188 37.55L166.59688 37.55ZM161.03438 32.378124Q161.03438 34.3625 161.87813 35.346874Q162.72188 36.33125 163.8625 36.33125Q165.01875 36.33125 165.81563 35.39375Q166.62813 34.45625 166.62813 32.51875Q166.62813 30.39375 165.8 29.39375Q164.9875 28.39375 163.78438 28.39375Q162.6125 28.39375 161.81563 29.3625Q161.03438 30.315624 161.03438 32.378124ZM179.75313 37.55L175.8 27.175L177.65938 27.175L179.89375 33.39375Q180.25313 34.39375 180.55 35.471874Q180.78438 34.659374 181.20625 33.503124L183.50313 27.175L185.31563 27.175L181.39375 37.55L179.75313 37.55ZM185.15938 34.45625L186.90938 34.175Q187.05 35.221874 187.72188 35.784374Q188.39375 36.33125 189.59688 36.33125Q190.8 36.33125 191.37813 35.846874Q191.97188 35.346874 191.97188 34.690624Q191.97188 34.096874 191.45625 33.753124Q191.09688 33.51875 189.65938 33.159374Q187.72188 32.659374 186.97188 32.315624Q186.2375 31.95625 185.84688 31.33125Q185.45625 30.690624 185.45625 29.925Q185.45625 29.2375 185.76875 28.64375Q186.09688 28.05 186.64375 27.659374Q187.05 27.3625 187.75313 27.159374Q188.47188 26.940624 189.28438 26.940624Q190.50313 26.940624 191.425 27.3Q192.34688 27.64375 192.78438 28.253124Q193.22188 28.846874 193.39375 29.846874L191.675 30.08125Q191.55 29.284374 190.9875 28.846874Q190.425 28.39375 189.40938 28.39375Q188.19063 28.39375 187.675 28.8Q187.15938 29.190624 187.15938 29.721874Q187.15938 30.065624 187.37813 30.346874Q187.58125 30.628124 188.05 30.815624Q188.31563 30.909374 189.59688 31.253124Q191.47188 31.753124 192.20625 32.08125Q192.94063 32.39375 193.3625 33.003124Q193.78438 33.596874 193.78438 34.503124Q193.78438 35.378124 193.26875 36.159374Q192.75313 36.940624 191.78438 37.3625Q190.81563 37.784374 189.59688 37.784374Q187.58125 37.784374 186.51875 36.940624Q185.45625 36.096874 185.15938 34.45625ZM202.09688 37.55L202.09688 23.2375L207.01875 23.2375Q208.69063 23.2375 209.58125 23.440624Q210.8 23.721874 211.675 24.45625Q212.8 25.425 213.3625 26.909374Q213.925 28.39375 213.925 30.315624Q213.925 31.940624 213.55 33.20625Q213.175 34.45625 212.56563 35.284374Q211.97188 36.1125 211.26875 36.596874Q210.56563 37.065624 209.56563 37.315624Q208.56563 37.55 207.25313 37.55L202.09688 37.55ZM203.9875 35.8625L207.05 35.8625Q208.45625 35.8625 209.25313 35.596874Q210.06563 35.33125 210.55 34.846874Q211.22188 34.175 211.59688 33.05Q211.97188 31.909374 211.97188 30.284374Q211.97188 28.034374 211.2375 26.83125Q210.50313 25.628124 209.44063 25.221874Q208.69063 24.925 207.00313 24.925L203.9875 24.925L203.9875 35.8625ZM222.64375 36.26875Q221.65938 37.096874 220.75313 37.440624Q219.84688 37.784374 218.81563 37.784374Q217.1125 37.784374 216.19063 36.95625Q215.26875 36.1125 215.26875 34.815624Q215.26875 34.05 215.6125 33.425Q215.97188 32.8 216.53438 32.425Q217.09688 32.034374 217.8 31.83125Q218.31563 31.70625 219.3625 31.565624Q221.4875 31.315624 222.4875 30.971874Q222.50313 30.6125 222.50313 30.503124Q222.50313 29.440624 222.00313 28.9875Q221.33125 28.39375 220.00313 28.39375Q218.75313 28.39375 218.15938 28.83125Q217.58125 29.26875 217.3 30.378124L215.58125 30.14375Q215.81563 29.034374 216.34688 28.3625Q216.87813 27.675 217.89375 27.315624Q218.90938 26.940624 220.25313 26.940624Q221.58125 26.940624 222.40938 27.253124Q223.2375 27.565624 223.62813 28.05Q224.01875 28.51875 224.175 29.2375Q224.26875 29.690624 224.26875 30.8625L224.26875 33.20625Q224.26875 35.659374 224.37813 36.315624Q224.4875 36.95625 224.83125 37.55L222.9875 37.55Q222.72188 37.003124 222.64375 36.26875ZM222.4875 32.346874Q221.53438 32.7375 219.6125 33.003124Q218.53438 33.159374 218.08125 33.3625Q217.64375 33.55 217.39375 33.925Q217.14375 34.3 217.14375 34.76875Q217.14375 35.471874 217.675 35.940624Q218.20625 36.409374 219.2375 36.409374Q220.25313 36.409374 221.03438 35.971874Q221.83125 35.51875 222.20625 34.753124Q222.4875 34.14375 222.4875 32.9875L222.4875 32.346874ZM230.70625 35.971874L230.95625 37.534374Q230.22188 37.690624 229.62813 37.690624Q228.675 37.690624 228.14375 37.39375Q227.62813 37.08125 227.40938 36.596874Q227.19063 36.096874 227.19063 34.51875L227.19063 28.55L225.90938 28.55L225.90938 27.175L227.19063 27.175L227.19063 24.6125L228.94063 23.55L228.94063 27.175L230.70625 27.175L230.70625 28.55L228.94063 28.55L228.94063 34.6125Q228.94063 35.3625 229.03438 35.58125Q229.12813 35.784374 229.33125 35.925Q229.55 36.05 229.94063 36.05Q230.22188 36.05 230.70625 35.971874ZM239.97188 34.20625L241.78438 34.440624Q241.3625 36.01875 240.19063 36.909374Q239.03438 37.784374 237.22188 37.784374Q234.95625 37.784374 233.6125 36.39375Q232.28438 34.9875 232.28438 32.45625Q232.28438 29.83125 233.62813 28.39375Q234.97188 26.940624 237.12813 26.940624Q239.20625 26.940624 240.51875 28.3625Q241.84688 29.76875 241.84688 32.346874Q241.84688 32.503124 241.83125 32.815624L234.09688 32.815624Q234.19063 34.51875 235.06563 35.425Q235.94063 36.33125 237.2375 36.33125Q238.20625 36.33125 238.87813 35.83125Q239.56563 35.315624 239.97188 34.20625ZM234.19063 31.3625L239.9875 31.3625Q239.87813 30.065624 239.33125 29.409374Q238.4875 28.39375 237.14375 28.39375Q235.94063 28.39375 235.1125 29.20625Q234.28438 30.003124 234.19063 31.3625Z" fill-rule="nonzero"/></svg>