<svg version="1.1" viewBox="0.0 0.0 1131.0 649.0" fill="none" stroke="none" stroke-linecap="square" stroke-miterlimit="10" width="1131" height="649" xmlns:xlink="http://www.w3.org/1999/xlink" xmlns="http://www.w3.org/2000/svg"><path fill="#ffffff" d="M0 0L1131.0 0L1131.0 649.0L0 649.0L0 0Z" fill-rule="nonzero"/><path stroke="#cccccc" stroke-width="1.0" stroke-linecap="butt" d="M161.5 102.5L161.5 553.5" fill-rule="nonzero"/><path stroke="#cccccc" stroke-width="1.0" stroke-linecap="butt" d="M387.5 102.5L387.5 553.5" fill-rule="nonzero"/><path stroke="#cccccc" stroke-width="1.0" stroke-linecap="butt" d="M606.5 102.5L606.5 553.5" fill-rule="nonzero"/><path stroke="#cccccc" stroke-width="1.0" stroke-linecap="butt" d="M832.5 102.5L832.5 553.5" fill-rule="nonzero"/><path stroke="#cccccc" stroke-width="1.0" stroke-linecap="butt" d="M1058.5 102.5L1058.5 553.5" fill-rule="nonzero"/><path stroke="#e6e6e6" stroke-width="1.0" stroke-linecap="butt" d="M311.5 102.5L311.5 553.5" fill-rule="nonzero"/><path stroke="#e6e6e6" stroke-width="1.0" stroke-linecap="butt" d="M236.5 102.5L236.5 553.5" fill-rule="nonzero"/><path stroke="#e6e6e6" stroke-width="1.0" stroke-linecap="butt" d="M533.5 102.5L533.5 553.5" fill-rule="nonzero"/><path stroke="#e6e6e6" stroke-width="1.0" stroke-linecap="butt" d="M460.5 102.5L460.5 553.5" fill-rule="nonzero"/><path stroke="#e6e6e6" stroke-width="1.0" stroke-linecap="butt" d="M756.5 102.5L756.5 553.5" fill-rule="nonzero"/><path stroke="#e6e6e6" stroke-width="1.0" stroke-linecap="butt" d="M681.5 102.5L681.5 553.5" fill-rule="nonzero"/><path stroke="#e6e6e6" stroke-width="1.0" stroke-linecap="butt" d="M982.5 102.5L982.5 553.5" fill-rule="nonzero"/><path stroke="#e6e6e6" stroke-width="1.0" stroke-linecap="butt" d="M907.5 102.5L907.5 553.5" fill-rule="nonzero"/><path stroke="#000000" stroke-width="1.0" stroke-linecap="butt" stroke-opacity="0.0" d="M102.5 523.5L1098.5 523.5" fill-rule="nonzero"/><path stroke="#000000" stroke-width="1.0" stroke-linecap="butt" stroke-opacity="0.0" d="M102.5 493.5L1098.5 493.5" fill-rule="nonzero"/><path stroke="#000000" stroke-width="1.0" stroke-linecap="butt" stroke-opacity="0.0" d="M102.5 433.5L1098.5 433.5" fill-rule="nonzero"/><path stroke="#000000" stroke-width="1.0" stroke-linecap="butt" stroke-opacity="0.0" d="M102.5 403.5L1098.5 403.5" fill-rule="nonzero"/><path stroke="#000000" stroke-width="1.0" stroke-linecap="butt" stroke-opacity="0.0" d="M102.5 342.5L1098.5 342.5" fill-rule="nonzero"/><path stroke="#000000" stroke-width="1.0" stroke-linecap="butt" stroke-opacity="0.0" d="M102.5 312.5L1098.5 312.5" fill-rule="nonzero"/><path stroke="#000000" stroke-width="1.0" stroke-linecap="butt" stroke-opacity="0.0" d="M102.5 252.5L1098.5 252.5" fill-rule="nonzero"/><path stroke="#000000" stroke-width="1.0" stroke-linecap="butt" stroke-opacity="0.0" d="M102.5 222.5L1098.5 222.5" fill-rule="nonzero"/><path stroke="#000000" stroke-width="1.0" stroke-linecap="butt" stroke-opacity="0.0" d="M102.5 162.5L1098.5 162.5" fill-rule="nonzero"/><path stroke="#000000" stroke-width="1.0" stroke-linecap="butt" stroke-opacity="0.0" d="M102.5 132.5L1098.5 132.5" fill-rule="nonzero"/><clipPath id="id_0"><path d="M102.45 102.083336L1098.55 102.083336L1098.55 553.55L102.45 553.55L102.45 102.083336Z" clip-rule="nonzero"/></clipPath><path stroke="#e06666" stroke-width="4.0" stroke-linecap="butt" clip-path="url(#id_0)" d="M109.35298 508.40332C109.35298 508.40332 109.35298 520.9441 109.35298 523.4522C109.35298 525.9604 116.76652 536.7096 120.47329 538.5011C124.18006 540.29266 198.31546 561.07446 198.31546 508.40332C198.31546 455.7322 198.31546 245.04778 198.31546 192.37666C198.31546 139.70555 220.55608 445.198 231.67639 463.25665C242.79669 481.31534 257.62378 324.8069 268.74408 282.67C279.8644 240.53311 297.16266 161.44284 302.105 192.37666C307.04736 223.3105 315.6965 446.32666 316.9321 418.11C318.1677 389.89334 319.4033 227.31158 320.63885 192.37666C321.87445 157.44174 365.12012 386.9373 372.53366 418.11C379.94717 449.28268 393.53867 500.87888 394.77426 508.40332C396.00986 515.9278 397.24545 535.993 398.48105 538.5011C399.7166 541.0093 403.4234 513.4196 405.89456 508.40332C408.36575 503.38702 468.90967 515.9278 494.85706 508.40332C520.80444 500.87888 560.3433 454.29898 572.6992 463.25665C585.0551 472.21432 609.7669 543.5174 609.7669 538.5011C609.7669 533.4848 609.7669 513.4196 609.7669 508.40332C609.7669 503.38702 634.4787 410.58554 639.4211 418.11C644.36346 425.63443 649.3058 495.36096 654.24817 508.40332C659.19055 521.4457 711.0853 452.72244 728.38354 448.20776C745.6818 443.6931 770.3936 454.29898 780.2783 463.25665C790.1631 472.21432 807.4613 529.0956 809.9325 508.40332C812.4037 487.71112 814.8749 387.6539 817.34607 372.96335C819.8172 358.27277 837.1155 520.0483 843.29346 538.5011C849.4714 556.9539 858.1205 550.5402 861.8273 530.9767C865.53406 511.41312 869.24084 436.9211 872.9476 418.11C876.65436 399.2989 958.2033 403.0611 961.9101 418.11C965.6168 433.15887 969.3236 492.7901 973.0304 508.40332C976.7371 524.01654 1032.3387 528.71936 1047.1658 530.9767C1061.9929 533.234 1091.647 530.9767 1091.647 530.9767" fill-rule="nonzero"/><path stroke="#4285f4" stroke-width="2.0" stroke-linecap="butt" stroke-opacity="0.4" clip-path="url(#id_0)" d="M0 397.6588L1098.55 505.47754" fill-rule="nonzero"/><path fill="#e06666" clip-path="url(#id_0)" d="M113.85298 508.40332C113.85298 510.8886 111.838264 512.9033 109.35298 512.9033C106.8677 512.9033 104.85298 510.8886 104.85298 508.40332C104.85298 505.91806 106.8677 503.90332 109.35298 503.90332C111.838264 503.90332 113.85298 505.91806 113.85298 508.40332Z" fill-rule="nonzero"/><path fill="#e06666" clip-path="url(#id_0)" d="M113.85298 523.4522C113.85298 525.9375 111.838264 527.9522 109.35298 527.9522C106.8677 527.9522 104.85298 525.9375 104.85298 523.4522C104.85298 520.9669 106.8677 518.9522 109.35298 518.9522C111.838264 518.9522 113.85298 520.9669 113.85298 523.4522Z" fill-rule="nonzero"/><path fill="#e06666" clip-path="url(#id_0)" d="M124.97329 538.5011C124.97329 540.9864 122.95857 543.0011 120.47329 543.0011C117.98801 543.0011 115.97329 540.9864 115.97329 538.5011C115.97329 536.0158 117.98801 534.0011 120.47329 534.0011C122.95857 534.0011 124.97329 536.0158 124.97329 538.5011Z" fill-rule="nonzero"/><path fill="#e06666" clip-path="url(#id_0)" d="M202.81546 508.40332C202.81546 510.8886 200.80074 512.9033 198.31546 512.9033C195.83018 512.9033 193.81546 510.8886 193.81546 508.40332C193.81546 505.91806 195.83018 503.90332 198.31546 503.90332C200.80074 503.90332 202.81546 505.91806 202.81546 508.40332Z" fill-rule="nonzero"/><path fill="#e06666" clip-path="url(#id_0)" d="M202.81546 192.37666C202.81546 194.86195 200.80074 196.87666 198.31546 196.87666C195.83018 196.87666 193.81546 194.86195 193.81546 192.37666C193.81546 189.89139 195.83018 187.87666 198.31546 187.87666C200.80074 187.87666 202.81546 189.89139 202.81546 192.37666Z" fill-rule="nonzero"/><path fill="#e06666" clip-path="url(#id_0)" d="M236.17639 463.25665C236.17639 465.74194 234.16167 467.75665 231.67639 467.75665C229.1911 467.75665 227.17639 465.74194 227.17639 463.25665C227.17639 460.7714 229.1911 458.75665 231.67639 458.75665C234.16167 458.75665 236.17639 460.7714 236.17639 463.25665Z" fill-rule="nonzero"/><path fill="#e06666" clip-path="url(#id_0)" d="M273.24408 282.67C273.24408 285.15527 271.22937 287.17 268.74408 287.17C266.25882 287.17 264.24408 285.15527 264.24408 282.67C264.24408 280.18472 266.25882 278.17 268.74408 278.17C271.22937 278.17 273.24408 280.18472 273.24408 282.67Z" fill-rule="nonzero"/><path fill="#e06666" clip-path="url(#id_0)" d="M306.605 192.37666C306.605 194.86195 304.5903 196.87666 302.105 196.87666C299.61975 196.87666 297.605 194.86195 297.605 192.37666C297.605 189.89139 299.61975 187.87666 302.105 187.87666C304.5903 187.87666 306.605 189.89139 306.605 192.37666Z" fill-rule="nonzero"/><path fill="#e06666" clip-path="url(#id_0)" d="M321.4321 418.11C321.4321 420.59528 319.4174 422.61 316.9321 422.61C314.4468 422.61 312.4321 420.59528 312.4321 418.11C312.4321 415.62473 314.4468 413.61 316.9321 413.61C319.4174 413.61 321.4321 415.62473 321.4321 418.11Z" fill-rule="nonzero"/><path fill="#e06666" clip-path="url(#id_0)" d="M325.13885 192.37666C325.13885 194.86195 323.12415 196.87666 320.63885 196.87666C318.1536 196.87666 316.13885 194.86195 316.13885 192.37666C316.13885 189.89139 318.1536 187.87666 320.63885 187.87666C323.12415 187.87666 325.13885 189.89139 325.13885 192.37666Z" fill-rule="nonzero"/><path fill="#e06666" clip-path="url(#id_0)" d="M377.03366 418.11C377.03366 420.59528 375.01892 422.61 372.53366 422.61C370.04837 422.61 368.03366 420.59528 368.03366 418.11C368.03366 415.62473 370.04837 413.61 372.53366 413.61C375.01892 413.61 377.03366 415.62473 377.03366 418.11Z" fill-rule="nonzero"/><path fill="#e06666" clip-path="url(#id_0)" d="M399.27426 508.40332C399.27426 510.8886 397.25955 512.9033 394.77426 512.9033C392.28897 512.9033 390.27426 510.8886 390.27426 508.40332C390.27426 505.91806 392.28897 503.90332 394.77426 503.90332C397.25955 503.90332 399.27426 505.91806 399.27426 508.40332Z" fill-rule="nonzero"/><path fill="#e06666" clip-path="url(#id_0)" d="M402.98105 538.5011C402.98105 540.9864 400.9663 543.0011 398.48105 543.0011C395.99576 543.0011 393.98105 540.9864 393.98105 538.5011C393.98105 536.0158 395.99576 534.0011 398.48105 534.0011C400.9663 534.0011 402.98105 536.0158 402.98105 538.5011Z" fill-rule="nonzero"/><path fill="#e06666" clip-path="url(#id_0)" d="M410.39456 508.40332C410.39456 510.8886 408.37985 512.9033 405.89456 512.9033C403.4093 512.9033 401.39456 510.8886 401.39456 508.40332C401.39456 505.91806 403.4093 503.90332 405.89456 503.90332C408.37985 503.90332 410.39456 505.91806 410.39456 508.40332Z" fill-rule="nonzero"/><path fill="#e06666" clip-path="url(#id_0)" d="M499.35706 508.40332C499.35706 510.8886 497.34235 512.9033 494.85706 512.9033C492.37177 512.9033 490.35706 510.8886 490.35706 508.40332C490.35706 505.91806 492.37177 503.90332 494.85706 503.90332C497.34235 503.90332 499.35706 505.91806 499.35706 508.40332Z" fill-rule="nonzero"/><path fill="#e06666" clip-path="url(#id_0)" d="M577.1992 463.25665C577.1992 465.74194 575.1845 467.75665 572.6992 467.75665C570.2139 467.75665 568.1992 465.74194 568.1992 463.25665C568.1992 460.7714 570.2139 458.75665 572.6992 458.75665C575.1845 458.75665 577.1992 460.7714 577.1992 463.25665Z" fill-rule="nonzero"/><path fill="#e06666" clip-path="url(#id_0)" d="M614.2669 538.5011C614.2669 540.9864 612.2522 543.0011 609.7669 543.0011C607.2816 543.0011 605.2669 540.9864 605.2669 538.5011C605.2669 536.0158 607.2816 534.0011 609.7669 534.0011C612.2522 534.0011 614.2669 536.0158 614.2669 538.5011Z" fill-rule="nonzero"/><path fill="#e06666" clip-path="url(#id_0)" d="M614.2669 508.40332C614.2669 510.8886 612.2522 512.9033 609.7669 512.9033C607.2816 512.9033 605.2669 510.8886 605.2669 508.40332C605.2669 505.91806 607.2816 503.90332 609.7669 503.90332C612.2522 503.90332 614.2669 505.91806 614.2669 508.40332Z" fill-rule="nonzero"/><path fill="#e06666" clip-path="url(#id_0)" d="M643.9211 418.11C643.9211 420.59528 641.9064 422.61 639.4211 422.61C636.9358 422.61 634.9211 420.59528 634.9211 418.11C634.9211 415.62473 636.9358 413.61 639.4211 413.61C641.9064 413.61 643.9211 415.62473 643.9211 418.11Z" fill-rule="nonzero"/><path fill="#e06666" clip-path="url(#id_0)" d="M658.74817 508.40332C658.74817 510.8886 656.73346 512.9033 654.24817 512.9033C651.7629 512.9033 649.74817 510.8886 649.74817 508.40332C649.74817 505.91806 651.7629 503.90332 654.24817 503.90332C656.73346 503.90332 658.74817 505.91806 658.74817 508.40332Z" fill-rule="nonzero"/><path fill="#e06666" clip-path="url(#id_0)" d="M732.88354 448.20776C732.88354 450.69305 730.86884 452.70776 728.38354 452.70776C725.89825 452.70776 723.88354 450.69305 723.88354 448.20776C723.88354 445.7225 725.89825 443.70776 728.38354 443.70776C730.86884 443.70776 732.88354 445.7225 732.88354 448.20776Z" fill-rule="nonzero"/><path fill="#e06666" clip-path="url(#id_0)" d="M784.7783 463.25665C784.7783 465.74194 782.7636 467.75665 780.2783 467.75665C777.7931 467.75665 775.7783 465.74194 775.7783 463.25665C775.7783 460.7714 777.7931 458.75665 780.2783 458.75665C782.7636 458.75665 784.7783 460.7714 784.7783 463.25665Z" fill-rule="nonzero"/><path fill="#e06666" clip-path="url(#id_0)" d="M814.4325 508.40332C814.4325 510.8886 812.4178 512.9033 809.9325 512.9033C807.4472 512.9033 805.4325 510.8886 805.4325 508.40332C805.4325 505.91806 807.4472 503.90332 809.9325 503.90332C812.4178 503.90332 814.4325 505.91806 814.4325 508.40332Z" fill-rule="nonzero"/><path fill="#e06666" clip-path="url(#id_0)" d="M821.84607 372.96335C821.84607 375.4486 819.8313 377.46335 817.34607 377.46335C814.8608 377.46335 812.84607 375.4486 812.84607 372.96335C812.84607 370.47806 814.8608 368.46335 817.34607 368.46335C819.8313 368.46335 821.84607 370.47806 821.84607 372.96335Z" fill-rule="nonzero"/><path fill="#e06666" clip-path="url(#id_0)" d="M847.79346 538.5011C847.79346 540.9864 845.7787 543.0011 843.29346 543.0011C840.80817 543.0011 838.79346 540.9864 838.79346 538.5011C838.79346 536.0158 840.80817 534.0011 843.29346 534.0011C845.7787 534.0011 847.79346 536.0158 847.79346 538.5011Z" fill-rule="nonzero"/><path fill="#e06666" clip-path="url(#id_0)" d="M866.3273 530.9767C866.3273 533.462 864.31256 535.4767 861.8273 535.4767C859.342 535.4767 857.3273 533.462 857.3273 530.9767C857.3273 528.4914 859.342 526.4767 861.8273 526.4767C864.31256 526.4767 866.3273 528.4914 866.3273 530.9767Z" fill-rule="nonzero"/><path fill="#e06666" clip-path="url(#id_0)" d="M877.4476 418.11C877.4476 420.59528 875.43286 422.61 872.9476 422.61C870.46234 422.61 868.4476 420.59528 868.4476 418.11C868.4476 415.62473 870.46234 413.61 872.9476 413.61C875.43286 413.61 877.4476 415.62473 877.4476 418.11Z" fill-rule="nonzero"/><path fill="#e06666" clip-path="url(#id_0)" d="M966.4101 418.11C966.4101 420.59528 964.3953 422.61 961.9101 422.61C959.4248 422.61 957.4101 420.59528 957.4101 418.11C957.4101 415.62473 959.4248 413.61 961.9101 413.61C964.3953 413.61 966.4101 415.62473 966.4101 418.11Z" fill-rule="nonzero"/><path fill="#e06666" clip-path="url(#id_0)" d="M977.5304 508.40332C977.5304 510.8886 975.5157 512.9033 973.0304 512.9033C970.5451 512.9033 968.5304 510.8886 968.5304 508.40332C968.5304 505.91806 970.5451 503.90332 973.0304 503.90332C975.5157 503.90332 977.5304 505.91806 977.5304 508.40332Z" fill-rule="nonzero"/><path fill="#e06666" clip-path="url(#id_0)" d="M1051.6658 530.9767C1051.6658 533.462 1049.651 535.4767 1047.1658 535.4767C1044.6805 535.4767 1042.6658 533.462 1042.6658 530.9767C1042.6658 528.4914 1044.6805 526.4767 1047.1658 526.4767C1049.651 526.4767 1051.6658 528.4914 1051.6658 530.9767Z" fill-rule="nonzero"/><path fill="#e06666" clip-path="url(#id_0)" d="M1096.147 530.9767C1096.147 533.462 1094.1323 535.4767 1091.647 535.4767C1089.1617 535.4767 1087.147 533.462 1087.147 530.9767C1087.147 528.4914 1089.1617 526.4767 1091.647 526.4767C1094.1323 526.4767 1096.147 528.4914 1096.147 530.9767Z" fill-rule="nonzero"/><path fill="#000000" d="M584.7344 612.55L584.7344 601.09686L588.6875 601.09686Q590.0156 601.09686 590.71875 601.2531Q591.7031 601.4875 592.40625 602.08124Q593.3125 602.84686 593.75 604.03436Q594.2031 605.22186 594.2031 606.7531Q594.2031 608.0656 593.8906 609.08124Q593.59375 610.08124 593.1094 610.7375Q592.6406 611.39374 592.0781 611.78436Q591.5156 612.15936 590.7031 612.3625Q589.90625 612.55 588.875 612.55L584.7344 612.55ZM586.25 611.1906L588.7031 611.1906Q589.8281 611.1906 590.46875 610.9875Q591.125 610.76874 591.5 610.39374Q592.0469 609.84686 592.34375 608.9406Q592.6406 608.03436 592.6406 606.7375Q592.6406 604.9406 592.0469 603.97186Q591.46875 603.0031 590.625 602.675Q590.0156 602.4406 588.65625 602.4406L586.25 602.4406L586.25 611.1906ZM601.96875 611.51874Q601.1875 612.1906 600.46875 612.47186Q599.75 612.7375 598.9219 612.7375Q597.5469 612.7375 596.8125 612.0656Q596.0781 611.39374 596.0781 610.3625Q596.0781 609.7531 596.3594 609.2531Q596.6406 608.7375 597.0781 608.4406Q597.53125 608.1281 598.09375 607.97186Q598.5156 607.8625 599.34375 607.76874Q601.0469 607.5656 601.8594 607.28436Q601.8594 606.9875 601.8594 606.90936Q601.8594 606.05 601.46875 605.70624Q600.9219 605.22186 599.8594 605.22186Q598.875 605.22186 598.3906 605.58124Q597.9219 605.925 597.7031 606.8L596.3281 606.6125Q596.5156 605.7375 596.9375 605.1906Q597.375 604.64374 598.1875 604.3625Q599.0 604.0656 600.0625 604.0656Q601.125 604.0656 601.78125 604.3156Q602.4531 604.5656 602.7656 604.9406Q603.0781 605.3156 603.2031 605.89374Q603.28125 606.2531 603.28125 607.1906L603.28125 609.0656Q603.28125 611.03436 603.3594 611.55Q603.4531 612.0656 603.71875 612.55L602.25 612.55Q602.03125 612.1125 601.96875 611.51874ZM601.8594 608.3781Q601.09375 608.6906 599.5625 608.90936Q598.6875 609.03436 598.3281 609.1906Q597.96875 609.34686 597.7656 609.65936Q597.5781 609.95624 597.5781 610.3156Q597.5781 610.8781 598.0 611.2531Q598.4375 611.6281 599.25 611.6281Q600.0625 611.6281 600.6875 611.28436Q601.3281 610.925 601.625 610.3Q601.8594 609.83124 601.8594 608.89374L601.8594 608.3781ZM608.625 611.28436L608.8281 612.53436Q608.2344 612.65936 607.7656 612.65936Q607.0 612.65936 606.5781 612.425Q606.15625 612.175 605.9844 611.78436Q605.8125 611.3781 605.8125 610.1125L605.8125 605.34686L604.78125 605.34686L604.78125 604.2531L605.8125 604.2531L605.8125 602.1906L607.21875 601.34686L607.21875 604.2531L608.625 604.2531L608.625 605.34686L607.21875 605.34686L607.21875 610.1906Q607.21875 610.8 607.28125 610.97186Q607.3594 611.14374 607.53125 611.2531Q607.7031 611.34686 608.0156 611.34686Q608.25 611.34686 608.625 611.28436ZM615.2344 609.8781L616.6875 610.05Q616.34375 611.33124 615.40625 612.03436Q614.4844 612.7375 613.0469 612.7375Q611.21875 612.7375 610.15625 611.6125Q609.09375 610.4875 609.09375 608.47186Q609.09375 606.3781 610.1719 605.22186Q611.25 604.0656 612.96875 604.0656Q614.625 604.0656 615.6719 605.20624Q616.7344 606.33124 616.7344 608.3781Q616.7344 608.5031 616.7344 608.7531L610.5469 608.7531Q610.625 610.1281 611.3125 610.8625Q612.0156 611.58124 613.0469 611.58124Q613.8281 611.58124 614.375 611.175Q614.9219 610.76874 615.2344 609.8781ZM610.625 607.59686L615.25 607.59686Q615.15625 606.55 614.71875 606.03436Q614.0469 605.22186 612.9844 605.22186Q612.0156 605.22186 611.34375 605.8781Q610.6875 606.51874 610.625 607.59686Z" fill-rule="nonzero"/><path fill="#000000" d="M47.44999 353.5354L35.996864 353.5354L35.996864 352.01978L40.69999 352.01978L40.69999 346.06665L35.996864 346.06665L35.996864 344.55103L47.44999 344.55103L47.44999 346.06665L42.04374 346.06665L42.04374 352.01978L47.44999 352.01978L47.44999 353.5354ZM43.29374 343.2854Q40.996864 343.2854 39.88749 342.00415Q38.965614 340.92603 38.965614 339.39478Q38.965614 337.67603 40.090614 336.5979Q41.19999 335.50415 43.184364 335.50415Q44.778114 335.50415 45.69999 335.98853Q46.621864 336.4729 47.13749 337.39478Q47.63749 338.30103 47.63749 339.39478Q47.63749 341.12915 46.528114 342.20728Q45.403114 343.2854 43.29374 343.2854ZM43.29374 341.83228Q44.88749 341.83228 45.684364 341.14478Q46.48124 340.44165 46.48124 339.39478Q46.48124 338.3479 45.684364 337.6604Q44.88749 336.95728 43.246864 336.95728Q41.715614 336.95728 40.91874 337.6604Q40.121864 338.3479 40.121864 339.39478Q40.121864 340.44165 40.91874 341.14478Q41.69999 341.83228 43.29374 341.83228ZM47.44999 328.31665L46.23124 328.31665Q47.63749 329.2854 47.63749 330.95728Q47.63749 331.69165 47.35624 332.33228Q47.07499 332.95728 46.653114 333.26978Q46.215614 333.58228 45.60624 333.70728Q45.184364 333.7854 44.29374 333.7854L39.153114 333.7854L39.153114 332.37915L43.746864 332.37915Q44.85624 332.37915 45.23124 332.30103Q45.79374 332.1604 46.10624 331.73853Q46.41874 331.30103 46.41874 330.67603Q46.41874 330.0354 46.10624 329.48853Q45.778114 328.92603 45.215614 328.70728Q44.653114 328.4729 43.590614 328.4729L39.153114 328.4729L39.153114 327.06665L47.44999 327.06665L47.44999 328.31665ZM47.44999 325.76978L39.153114 325.76978L39.153114 324.50415L40.403114 324.50415Q39.528114 324.01978 39.246864 323.61353Q38.965614 323.20728 38.965614 322.70728Q38.965614 322.00415 39.41874 321.26978L40.715614 321.75415Q40.41874 322.26978 40.41874 322.7854Q40.41874 323.23853 40.69999 323.61353Q40.965614 323.9729 41.465614 324.12915Q42.215614 324.36353 43.10624 324.36353L47.44999 324.36353L47.44999 325.76978ZM44.965614 321.31665L44.746864 319.92603Q45.590614 319.81665 46.04374 319.2854Q46.48124 318.73853 46.48124 317.7854Q46.48124 316.81665 46.090614 316.3479Q45.684364 315.87915 45.153114 315.87915Q44.684364 315.87915 44.403114 316.2854Q44.215614 316.58228 43.934364 317.7229Q43.54374 319.26978 43.26249 319.87915Q42.965614 320.4729 42.465614 320.7854Q41.965614 321.08228 41.35624 321.08228Q40.79374 321.08228 40.32499 320.83228Q39.85624 320.58228 39.54374 320.14478Q39.29374 319.81665 39.13749 319.25415Q38.965614 318.67603 38.965614 318.0354Q38.965614 317.05103 39.246864 316.31665Q39.528114 315.58228 40.01249 315.23853Q40.48124 314.87915 41.29374 314.73853L41.48124 316.11353Q40.840614 316.20728 40.48124 316.6604Q40.121864 317.11353 40.121864 317.92603Q40.121864 318.89478 40.44999 319.31665Q40.76249 319.7229 41.184364 319.7229Q41.465614 319.7229 41.684364 319.55103Q41.903114 319.37915 42.059364 319.01978Q42.13749 318.80103 42.41874 317.76978Q42.809364 316.2854 43.07499 315.69165Q43.32499 315.0979 43.809364 314.76978Q44.29374 314.42603 45.01249 314.42603Q45.715614 314.42603 46.340614 314.8479Q46.94999 315.25415 47.29374 316.0354Q47.63749 316.80103 47.63749 317.76978Q47.63749 319.39478 46.965614 320.23853Q46.29374 321.08228 44.965614 321.31665Z" fill-rule="nonzero"/><path fill="#000000" d="M89.95 553.3156Q89.95 551.78436 90.2625 550.8625Q90.575 549.925 91.18437 549.425Q91.80937 548.925 92.74687 548.925Q93.43437 548.925 93.95 549.20624Q94.48125 549.4875 94.825 550.01874Q95.16875 550.53436 95.35625 551.28436Q95.54375 552.03436 95.54375 553.3156Q95.54375 554.83124 95.23125 555.7531Q94.93437 556.675 94.30937 557.1906Q93.7 557.6906 92.74687 557.6906Q91.5125 557.6906 90.79375 556.8Q89.95 555.7375 89.95 553.3156ZM91.02812 553.3156Q91.02812 555.425 91.52812 556.1281Q92.02812 556.83124 92.74687 556.83124Q93.48125 556.83124 93.96562 556.1281Q94.46562 555.425 94.46562 553.3156Q94.46562 551.1906 93.96562 550.5031Q93.48125 549.8 92.73125 549.8Q92.0125 549.8 91.575 550.40936Q91.02812 551.1906 91.02812 553.3156Z" fill-rule="nonzero"/><path fill="#000000" d="M93.91875 467.25665L92.87187 467.25665L92.87187 460.5379Q92.48125 460.89728 91.85625 461.27228Q91.24687 461.63165 90.7625 461.80353L90.7625 460.7879Q91.6375 460.36603 92.29375 459.7879Q92.96562 459.19415 93.24687 458.63165L93.91875 458.63165L93.91875 467.25665Z" fill-rule="nonzero"/><path fill="#000000" d="M95.49687 375.94772L95.49687 376.96335L89.80937 376.96335Q89.80937 376.58835 89.93437 376.22897Q90.15312 375.65085 90.62187 375.08835Q91.10625 374.52585 92.0125 373.79147Q93.41875 372.63522 93.90312 371.96335Q94.40312 371.29147 94.40312 370.69772Q94.40312 370.07272 93.95 369.65085Q93.49687 369.21335 92.77812 369.21335Q92.0125 369.21335 91.55937 369.66647Q91.10625 370.1196 91.09062 370.9321L90.0125 370.82272Q90.12187 369.60397 90.84062 368.97897Q91.575 368.33835 92.80937 368.33835Q94.04375 368.33835 94.7625 369.02585Q95.48125 369.71335 95.48125 370.72897Q95.48125 371.2446 95.2625 371.7446Q95.05937 372.22897 94.55937 372.79147Q94.075 373.33835 92.95 374.29147Q91.99687 375.08835 91.71562 375.38522Q91.45 375.66647 91.27812 375.94772L95.49687 375.94772Z" fill-rule="nonzero"/><path fill="#000000" d="M89.95 284.4044L91.0125 284.26376Q91.18437 285.1544 91.62187 285.56064Q92.05937 285.95126 92.68437 285.95126Q93.43437 285.95126 93.95 285.43564Q94.46562 284.92 94.46562 284.1544Q94.46562 283.43564 93.98125 282.9669Q93.5125 282.4825 92.77812 282.4825Q92.48125 282.4825 92.02812 282.6075L92.15312 281.67Q92.2625 281.68564 92.325 281.68564Q92.99687 281.68564 93.52812 281.3419Q94.075 280.9825 94.075 280.24814Q94.075 279.67 93.68437 279.295Q93.29375 278.9044 92.66875 278.9044Q92.05937 278.9044 91.6375 279.295Q91.23125 279.68564 91.12187 280.45126L90.05937 280.26376Q90.24687 279.2169 90.93437 278.63876Q91.62187 278.045 92.6375 278.045Q93.34062 278.045 93.93437 278.3575Q94.52812 278.6544 94.84062 279.17Q95.15312 279.68564 95.15312 280.2794Q95.15312 280.82626 94.85625 281.295Q94.55937 281.74814 93.98125 282.01376Q94.73125 282.18564 95.15312 282.74814Q95.575 283.295 95.575 284.13876Q95.575 285.26376 94.74687 286.045Q93.93437 286.82626 92.68437 286.82626Q91.55937 286.82626 90.80937 286.1544Q90.05937 285.4669 89.95 284.4044Z" fill-rule="nonzero"/><path fill="#000000" d="M93.325 196.37666L93.325 194.31416L89.60625 194.31416L89.60625 193.34541L93.52812 187.78291L94.3875 187.78291L94.3875 193.34541L95.54375 193.34541L95.54375 194.31416L94.3875 194.31416L94.3875 196.37666L93.325 196.37666ZM93.325 193.34541L93.325 189.48604L90.6375 193.34541L93.325 193.34541Z" fill-rule="nonzero"/><path fill="#000000" d="M89.95 103.833336L91.05937 103.739586Q91.18437 104.552086 91.62187 104.958336Q92.075 105.364586 92.71562 105.364586Q93.46562 105.364586 93.99687 104.78646Q94.52812 104.208336 94.52812 103.270836Q94.52812 102.364586 94.0125 101.84896Q93.5125 101.31771 92.68437 101.31771Q92.18437 101.31771 91.7625 101.552086Q91.35625 101.78646 91.12187 102.145836L90.1375 102.020836L90.96562 97.614586L95.24687 97.614586L95.24687 98.614586L91.80937 98.614586L91.35625 100.927086Q92.12187 100.38021 92.96562 100.38021Q94.09062 100.38021 94.85625 101.16146Q95.6375 101.94271 95.6375 103.177086Q95.6375 104.333336 94.96562 105.19271Q94.1375 106.22396 92.71562 106.22396Q91.54375 106.22396 90.79375 105.56771Q90.05937 104.91146 89.95 103.833336Z" fill-rule="nonzero"/><path fill="#000000" d="M135.29463 569.53436L135.29463 570.55L129.60713 570.55Q129.60713 570.175 129.73213 569.8156Q129.95088 569.2375 130.41963 568.675Q130.904 568.1125 131.81026 567.3781Q133.2165 566.22186 133.70088 565.55Q134.20088 564.8781 134.20088 564.28436Q134.20088 563.65936 133.74776 563.2375Q133.29463 562.8 132.57588 562.8Q131.81026 562.8 131.35713 563.2531Q130.904 563.70624 130.88838 564.51874L129.81026 564.40936Q129.91963 563.1906 130.63838 562.5656Q131.37276 561.925 132.60713 561.925Q133.8415 561.925 134.56026 562.6125Q135.279 563.3 135.279 564.3156Q135.279 564.83124 135.06026 565.33124Q134.85713 565.8156 134.35713 566.3781Q133.87276 566.925 132.74776 567.8781Q131.79463 568.675 131.51338 568.97186Q131.24776 569.2531 131.07588 569.53436L135.29463 569.53436ZM136.74776 566.3156Q136.74776 564.78436 137.06026 563.8625Q137.37276 562.925 137.98213 562.425Q138.60713 561.925 139.54463 561.925Q140.23213 561.925 140.74776 562.20624Q141.279 562.4875 141.62276 563.01874Q141.9665 563.53436 142.154 564.28436Q142.3415 565.03436 142.3415 566.3156Q142.3415 567.83124 142.029 568.7531Q141.73213 569.675 141.10713 570.1906Q140.49776 570.6906 139.54463 570.6906Q138.31026 570.6906 137.5915 569.8Q136.74776 568.7375 136.74776 566.3156ZM137.82588 566.3156Q137.82588 568.425 138.32588 569.1281Q138.82588 569.83124 139.54463 569.83124Q140.279 569.83124 140.76338 569.1281Q141.26338 568.425 141.26338 566.3156Q141.26338 564.1906 140.76338 563.5031Q140.279 562.8 139.529 562.8Q138.81026 562.8 138.37276 563.40936Q137.82588 564.1906 137.82588 566.3156ZM149.29463 569.53436L149.29463 570.55L143.60713 570.55Q143.60713 570.175 143.73213 569.8156Q143.95088 569.2375 144.41963 568.675Q144.904 568.1125 145.81026 567.3781Q147.2165 566.22186 147.70088 565.55Q148.20088 564.8781 148.20088 564.28436Q148.20088 563.65936 147.74776 563.2375Q147.29463 562.8 146.57588 562.8Q145.81026 562.8 145.35713 563.2531Q144.904 563.70624 144.88838 564.51874L143.81026 564.40936Q143.91963 563.1906 144.63838 562.5656Q145.37276 561.925 146.60713 561.925Q147.8415 561.925 148.56026 562.6125Q149.279 563.3 149.279 564.3156Q149.279 564.83124 149.06026 565.33124Q148.85713 565.8156 148.35713 566.3781Q147.87276 566.925 146.74776 567.8781Q145.79463 568.675 145.51338 568.97186Q145.24776 569.2531 145.07588 569.53436L149.29463 569.53436ZM156.29463 569.53436L156.29463 570.55L150.60713 570.55Q150.60713 570.175 150.73213 569.8156Q150.95088 569.2375 151.41963 568.675Q151.904 568.1125 152.81026 567.3781Q154.2165 566.22186 154.70088 565.55Q155.20088 564.8781 155.20088 564.28436Q155.20088 563.65936 154.74776 563.2375Q154.29463 562.8 153.57588 562.8Q152.81026 562.8 152.35713 563.2531Q151.904 563.70624 151.88838 564.51874L150.81026 564.40936Q150.91963 563.1906 151.63838 562.5656Q152.37276 561.925 153.60713 561.925Q154.8415 561.925 155.56026 562.6125Q156.279 563.3 156.279 564.3156Q156.279 564.83124 156.06026 565.33124Q155.85713 565.8156 155.35713 566.3781Q154.87276 566.925 153.74776 567.8781Q152.79463 568.675 152.51338 568.97186Q152.24776 569.2531 152.07588 569.53436L156.29463 569.53436ZM157.62276 567.97186L157.62276 566.90936L160.87276 566.90936L160.87276 567.97186L157.62276 567.97186ZM165.7165 570.55L164.66963 570.55L164.66963 563.83124Q164.279 564.1906 163.654 564.5656Q163.04463 564.925 162.56026 565.09686L162.56026 564.08124Q163.43526 563.65936 164.0915 563.08124Q164.76338 562.4875 165.04463 561.925L165.7165 561.925L165.7165 570.55ZM172.7165 570.55L171.66963 570.55L171.66963 563.83124Q171.279 564.1906 170.654 564.5656Q170.04463 564.925 169.56026 565.09686L169.56026 564.08124Q170.43526 563.65936 171.0915 563.08124Q171.76338 562.4875 172.04463 561.925L172.7165 561.925L172.7165 570.55ZM175.62276 567.97186L175.62276 566.90936L178.87276 566.90936L178.87276 567.97186L175.62276 567.97186ZM179.74776 566.3156Q179.74776 564.78436 180.06026 563.8625Q180.37276 562.925 180.98213 562.425Q181.60713 561.925 182.54463 561.925Q183.23213 561.925 183.74776 562.20624Q184.279 562.4875 184.62276 563.01874Q184.9665 563.53436 185.154 564.28436Q185.3415 565.03436 185.3415 566.3156Q185.3415 567.83124 185.029 568.7531Q184.73213 569.675 184.10713 570.1906Q183.49776 570.6906 182.54463 570.6906Q181.31026 570.6906 180.5915 569.8Q179.74776 568.7375 179.74776 566.3156ZM180.82588 566.3156Q180.82588 568.425 181.32588 569.1281Q181.82588 569.83124 182.54463 569.83124Q183.279 569.83124 183.76338 569.1281Q184.26338 568.425 184.26338 566.3156Q184.26338 564.1906 183.76338 563.5031Q183.279 562.8 182.529 562.8Q181.81026 562.8 181.37276 563.40936Q180.82588 564.1906 180.82588 566.3156ZM190.7165 570.55L189.66963 570.55L189.66963 563.83124Q189.279 564.1906 188.654 564.5656Q188.04463 564.925 187.56026 565.09686L187.56026 564.08124Q188.43526 563.65936 189.0915 563.08124Q189.76338 562.4875 190.04463 561.925L190.7165 561.925L190.7165 570.55Z" fill-rule="nonzero"/><path fill="#000000" d="M361.4076 569.53436L361.4076 570.55L355.7201 570.55Q355.7201 570.175 355.8451 569.8156Q356.06384 569.2375 356.5326 568.675Q357.01697 568.1125 357.92322 567.3781Q359.32947 566.22186 359.81384 565.55Q360.31384 564.8781 360.31384 564.28436Q360.31384 563.65936 359.86072 563.2375Q359.4076 562.8 358.68884 562.8Q357.92322 562.8 357.4701 563.2531Q357.01697 563.70624 357.00134 564.51874L355.92322 564.40936Q356.0326 563.1906 356.75134 562.5656Q357.48572 561.925 358.7201 561.925Q359.95447 561.925 360.67322 562.6125Q361.39197 563.3 361.39197 564.3156Q361.39197 564.83124 361.17322 565.33124Q360.9701 565.8156 360.4701 566.3781Q359.98572 566.925 358.86072 567.8781Q357.9076 568.675 357.62634 568.97186Q357.36072 569.2531 357.18884 569.53436L361.4076 569.53436ZM362.86072 566.3156Q362.86072 564.78436 363.17322 563.8625Q363.48572 562.925 364.0951 562.425Q364.7201 561.925 365.6576 561.925Q366.3451 561.925 366.86072 562.20624Q367.39197 562.4875 367.73572 563.01874Q368.07947 563.53436 368.26697 564.28436Q368.45447 565.03436 368.45447 566.3156Q368.45447 567.83124 368.14197 568.7531Q367.8451 569.675 367.2201 570.1906Q366.61072 570.6906 365.6576 570.6906Q364.42322 570.6906 363.70447 569.8Q362.86072 568.7375 362.86072 566.3156ZM363.93884 566.3156Q363.93884 568.425 364.43884 569.1281Q364.93884 569.83124 365.6576 569.83124Q366.39197 569.83124 366.87634 569.1281Q367.37634 568.425 367.37634 566.3156Q367.37634 564.1906 366.87634 563.5031Q366.39197 562.8 365.64197 562.8Q364.92322 562.8 364.48572 563.40936Q363.93884 564.1906 363.93884 566.3156ZM375.4076 569.53436L375.4076 570.55L369.7201 570.55Q369.7201 570.175 369.8451 569.8156Q370.06384 569.2375 370.5326 568.675Q371.01697 568.1125 371.92322 567.3781Q373.32947 566.22186 373.81384 565.55Q374.31384 564.8781 374.31384 564.28436Q374.31384 563.65936 373.86072 563.2375Q373.4076 562.8 372.68884 562.8Q371.92322 562.8 371.4701 563.2531Q371.01697 563.70624 371.00134 564.51874L369.92322 564.40936Q370.0326 563.1906 370.75134 562.5656Q371.48572 561.925 372.7201 561.925Q373.95447 561.925 374.67322 562.6125Q375.39197 563.3 375.39197 564.3156Q375.39197 564.83124 375.17322 565.33124Q374.9701 565.8156 374.4701 566.3781Q373.98572 566.925 372.86072 567.8781Q371.9076 568.675 371.62634 568.97186Q371.36072 569.2531 371.18884 569.53436L375.4076 569.53436ZM376.86072 568.28436L377.92322 568.14374Q378.0951 569.03436 378.5326 569.4406Q378.9701 569.83124 379.5951 569.83124Q380.3451 569.83124 380.86072 569.3156Q381.37634 568.8 381.37634 568.03436Q381.37634 567.3156 380.89197 566.84686Q380.42322 566.3625 379.68884 566.3625Q379.39197 566.3625 378.93884 566.4875L379.06384 565.55Q379.17322 565.5656 379.23572 565.5656Q379.9076 565.5656 380.43884 565.22186Q380.98572 564.8625 380.98572 564.1281Q380.98572 563.55 380.5951 563.175Q380.20447 562.78436 379.57947 562.78436Q378.9701 562.78436 378.54822 563.175Q378.14197 563.5656 378.0326 564.33124L376.9701 564.14374Q377.1576 563.09686 377.8451 562.51874Q378.5326 561.925 379.54822 561.925Q380.25134 561.925 380.8451 562.2375Q381.43884 562.53436 381.75134 563.05Q382.06384 563.5656 382.06384 564.15936Q382.06384 564.70624 381.76697 565.175Q381.4701 565.6281 380.89197 565.89374Q381.64197 566.0656 382.06384 566.6281Q382.48572 567.175 382.48572 568.01874Q382.48572 569.14374 381.6576 569.925Q380.8451 570.70624 379.5951 570.70624Q378.4701 570.70624 377.7201 570.03436Q376.9701 569.34686 376.86072 568.28436ZM383.73572 567.97186L383.73572 566.90936L386.98572 566.90936L386.98572 567.97186L383.73572 567.97186ZM387.86072 566.3156Q387.86072 564.78436 388.17322 563.8625Q388.48572 562.925 389.0951 562.425Q389.7201 561.925 390.6576 561.925Q391.3451 561.925 391.86072 562.20624Q392.39197 562.4875 392.73572 563.01874Q393.07947 563.53436 393.26697 564.28436Q393.45447 565.03436 393.45447 566.3156Q393.45447 567.83124 393.14197 568.7531Q392.8451 569.675 392.2201 570.1906Q391.61072 570.6906 390.6576 570.6906Q389.42322 570.6906 388.70447 569.8Q387.86072 568.7375 387.86072 566.3156ZM388.93884 566.3156Q388.93884 568.425 389.43884 569.1281Q389.93884 569.83124 390.6576 569.83124Q391.39197 569.83124 391.87634 569.1281Q392.37634 568.425 392.37634 566.3156Q392.37634 564.1906 391.87634 563.5031Q391.39197 562.8 390.64197 562.8Q389.92322 562.8 389.48572 563.40936Q388.93884 564.1906 388.93884 566.3156ZM398.82947 570.55L397.7826 570.55L397.7826 563.83124Q397.39197 564.1906 396.76697 564.5656Q396.1576 564.925 395.67322 565.09686L395.67322 564.08124Q396.54822 563.65936 397.20447 563.08124Q397.87634 562.4875 398.1576 561.925L398.82947 561.925L398.82947 570.55ZM401.73572 567.97186L401.73572 566.90936L404.98572 566.90936L404.98572 567.97186L401.73572 567.97186ZM405.86072 566.3156Q405.86072 564.78436 406.17322 563.8625Q406.48572 562.925 407.0951 562.425Q407.7201 561.925 408.6576 561.925Q409.3451 561.925 409.86072 562.20624Q410.39197 562.4875 410.73572 563.01874Q411.07947 563.53436 411.26697 564.28436Q411.45447 565.03436 411.45447 566.3156Q411.45447 567.83124 411.14197 568.7531Q410.8451 569.675 410.2201 570.1906Q409.61072 570.6906 408.6576 570.6906Q407.42322 570.6906 406.70447 569.8Q405.86072 568.7375 405.86072 566.3156ZM406.93884 566.3156Q406.93884 568.425 407.43884 569.1281Q407.93884 569.83124 408.6576 569.83124Q409.39197 569.83124 409.87634 569.1281Q410.37634 568.425 410.37634 566.3156Q410.37634 564.1906 409.87634 563.5031Q409.39197 562.8 408.64197 562.8Q407.92322 562.8 407.48572 563.40936Q406.93884 564.1906 406.93884 566.3156ZM416.82947 570.55L415.7826 570.55L415.7826 563.83124Q415.39197 564.1906 414.76697 564.5656Q414.1576 564.925 413.67322 565.09686L413.67322 564.08124Q414.54822 563.65936 415.20447 563.08124Q415.87634 562.4875 416.1576 561.925L416.82947 561.925L416.82947 570.55Z" fill-rule="nonzero"/><path fill="#000000" d="M580.10706 569.53436L580.10706 570.55L574.41956 570.55Q574.41956 570.175 574.54456 569.8156Q574.7633 569.2375 575.23206 568.675Q575.71643 568.1125 576.6227 567.3781Q578.02893 566.22186 578.5133 565.55Q579.0133 564.8781 579.0133 564.28436Q579.0133 563.65936 578.5602 563.2375Q578.10706 562.8 577.3883 562.8Q576.6227 562.8 576.16956 563.2531Q575.71643 563.70624 575.7008 564.51874L574.6227 564.40936Q574.73206 563.1906 575.4508 562.5656Q576.1852 561.925 577.41956 561.925Q578.65393 561.925 579.3727 562.6125Q580.09143 563.3 580.09143 564.3156Q580.09143 564.83124 579.8727 565.33124Q579.66956 565.8156 579.16956 566.3781Q578.6852 566.925 577.5602 567.8781Q576.60706 568.675 576.3258 568.97186Q576.0602 569.2531 575.8883 569.53436L580.10706 569.53436ZM581.5602 566.3156Q581.5602 564.78436 581.8727 563.8625Q582.1852 562.925 582.79456 562.425Q583.41956 561.925 584.35706 561.925Q585.04456 561.925 585.5602 562.20624Q586.09143 562.4875 586.4352 563.01874Q586.77893 563.53436 586.96643 564.28436Q587.15393 565.03436 587.15393 566.3156Q587.15393 567.83124 586.84143 568.7531Q586.54456 569.675 585.91956 570.1906Q585.3102 570.6906 584.35706 570.6906Q583.1227 570.6906 582.40393 569.8Q581.5602 568.7375 581.5602 566.3156ZM582.6383 566.3156Q582.6383 568.425 583.1383 569.1281Q583.6383 569.83124 584.35706 569.83124Q585.09143 569.83124 585.5758 569.1281Q586.0758 568.425 586.0758 566.3156Q586.0758 564.1906 585.5758 563.5031Q585.09143 562.8 584.34143 562.8Q583.6227 562.8 583.1852 563.40936Q582.6383 564.1906 582.6383 566.3156ZM594.10706 569.53436L594.10706 570.55L588.41956 570.55Q588.41956 570.175 588.54456 569.8156Q588.7633 569.2375 589.23206 568.675Q589.71643 568.1125 590.6227 567.3781Q592.02893 566.22186 592.5133 565.55Q593.0133 564.8781 593.0133 564.28436Q593.0133 563.65936 592.5602 563.2375Q592.10706 562.8 591.3883 562.8Q590.6227 562.8 590.16956 563.2531Q589.71643 563.70624 589.7008 564.51874L588.6227 564.40936Q588.73206 563.1906 589.4508 562.5656Q590.1852 561.925 591.41956 561.925Q592.65393 561.925 593.3727 562.6125Q594.09143 563.3 594.09143 564.3156Q594.09143 564.83124 593.8727 565.33124Q593.66956 565.8156 593.16956 566.3781Q592.6852 566.925 591.5602 567.8781Q590.60706 568.675 590.3258 568.97186Q590.0602 569.2531 589.8883 569.53436L594.10706 569.53436ZM595.5602 568.28436L596.6227 568.14374Q596.79456 569.03436 597.23206 569.4406Q597.66956 569.83124 598.29456 569.83124Q599.04456 569.83124 599.5602 569.3156Q600.0758 568.8 600.0758 568.03436Q600.0758 567.3156 599.59143 566.84686Q599.1227 566.3625 598.3883 566.3625Q598.09143 566.3625 597.6383 566.4875L597.7633 565.55Q597.8727 565.5656 597.9352 565.5656Q598.60706 565.5656 599.1383 565.22186Q599.6852 564.8625 599.6852 564.1281Q599.6852 563.55 599.29456 563.175Q598.90393 562.78436 598.27893 562.78436Q597.66956 562.78436 597.2477 563.175Q596.84143 563.5656 596.73206 564.33124L595.66956 564.14374Q595.85706 563.09686 596.54456 562.51874Q597.23206 561.925 598.2477 561.925Q598.9508 561.925 599.54456 562.2375Q600.1383 562.53436 600.4508 563.05Q600.7633 563.5656 600.7633 564.15936Q600.7633 564.70624 600.46643 565.175Q600.16956 565.6281 599.59143 565.89374Q600.34143 566.0656 600.7633 566.6281Q601.1852 567.175 601.1852 568.01874Q601.1852 569.14374 600.35706 569.925Q599.54456 570.70624 598.29456 570.70624Q597.16956 570.70624 596.41956 570.03436Q595.66956 569.34686 595.5602 568.28436ZM602.4352 567.97186L602.4352 566.90936L605.6852 566.90936L605.6852 567.97186L602.4352 567.97186ZM606.5602 566.3156Q606.5602 564.78436 606.8727 563.8625Q607.1852 562.925 607.79456 562.425Q608.41956 561.925 609.35706 561.925Q610.04456 561.925 610.5602 562.20624Q611.09143 562.4875 611.4352 563.01874Q611.77893 563.53436 611.96643 564.28436Q612.15393 565.03436 612.15393 566.3156Q612.15393 567.83124 611.84143 568.7531Q611.54456 569.675 610.91956 570.1906Q610.3102 570.6906 609.35706 570.6906Q608.1227 570.6906 607.40393 569.8Q606.5602 568.7375 606.5602 566.3156ZM607.6383 566.3156Q607.6383 568.425 608.1383 569.1281Q608.6383 569.83124 609.35706 569.83124Q610.09143 569.83124 610.5758 569.1281Q611.0758 568.425 611.0758 566.3156Q611.0758 564.1906 610.5758 563.5031Q610.09143 562.8 609.34143 562.8Q608.6227 562.8 608.1852 563.40936Q607.6383 564.1906 607.6383 566.3156ZM613.5602 568.28436L614.6227 568.14374Q614.79456 569.03436 615.23206 569.4406Q615.66956 569.83124 616.29456 569.83124Q617.04456 569.83124 617.5602 569.3156Q618.0758 568.8 618.0758 568.03436Q618.0758 567.3156 617.59143 566.84686Q617.1227 566.3625 616.3883 566.3625Q616.09143 566.3625 615.6383 566.4875L615.7633 565.55Q615.8727 565.5656 615.9352 565.5656Q616.60706 565.5656 617.1383 565.22186Q617.6852 564.8625 617.6852 564.1281Q617.6852 563.55 617.29456 563.175Q616.90393 562.78436 616.27893 562.78436Q615.66956 562.78436 615.2477 563.175Q614.84143 563.5656 614.73206 564.33124L613.66956 564.14374Q613.85706 563.09686 614.54456 562.51874Q615.23206 561.925 616.2477 561.925Q616.9508 561.925 617.54456 562.2375Q618.1383 562.53436 618.4508 563.05Q618.7633 563.5656 618.7633 564.15936Q618.7633 564.70624 618.46643 565.175Q618.16956 565.6281 617.59143 565.89374Q618.34143 566.0656 618.7633 566.6281Q619.1852 567.175 619.1852 568.01874Q619.1852 569.14374 618.35706 569.925Q617.54456 570.70624 616.29456 570.70624Q615.16956 570.70624 614.41956 570.03436Q613.66956 569.34686 613.5602 568.28436ZM620.4352 567.97186L620.4352 566.90936L623.6852 566.90936L623.6852 567.97186L620.4352 567.97186ZM624.5602 566.3156Q624.5602 564.78436 624.8727 563.8625Q625.1852 562.925 625.79456 562.425Q626.41956 561.925 627.35706 561.925Q628.04456 561.925 628.5602 562.20624Q629.09143 562.4875 629.4352 563.01874Q629.77893 563.53436 629.96643 564.28436Q630.15393 565.03436 630.15393 566.3156Q630.15393 567.83124 629.84143 568.7531Q629.54456 569.675 628.91956 570.1906Q628.3102 570.6906 627.35706 570.6906Q626.1227 570.6906 625.40393 569.8Q624.5602 568.7375 624.5602 566.3156ZM625.6383 566.3156Q625.6383 568.425 626.1383 569.1281Q626.6383 569.83124 627.35706 569.83124Q628.09143 569.83124 628.5758 569.1281Q629.0758 568.425 629.0758 566.3156Q629.0758 564.1906 628.5758 563.5031Q628.09143 562.8 627.34143 562.8Q626.6227 562.8 626.1852 563.40936Q625.6383 564.1906 625.6383 566.3156ZM635.52893 570.55L634.48206 570.55L634.48206 563.83124Q634.09143 564.1906 633.46643 564.5656Q632.85706 564.925 632.3727 565.09686L632.3727 564.08124Q633.2477 563.65936 633.90393 563.08124Q634.5758 562.4875 634.85706 561.925L635.52893 561.925L635.52893 570.55Z" fill-rule="nonzero"/><path fill="#000000" d="M806.22 569.53436L806.22 570.55L800.5325 570.55Q800.5325 570.175 800.6575 569.8156Q800.8762 569.2375 801.345 568.675Q801.82935 568.1125 802.7356 567.3781Q804.14185 566.22186 804.6262 565.55Q805.1262 564.8781 805.1262 564.28436Q805.1262 563.65936 804.6731 563.2375Q804.22 562.8 803.5012 562.8Q802.7356 562.8 802.2825 563.2531Q801.82935 563.70624 801.8137 564.51874L800.7356 564.40936Q800.845 563.1906 801.5637 562.5656Q802.2981 561.925 803.5325 561.925Q804.76685 561.925 805.4856 562.6125Q806.20435 563.3 806.20435 564.3156Q806.20435 564.83124 805.9856 565.33124Q805.7825 565.8156 805.2825 566.3781Q804.7981 566.925 803.6731 567.8781Q802.72 568.675 802.4387 568.97186Q802.1731 569.2531 802.0012 569.53436L806.22 569.53436ZM807.6731 566.3156Q807.6731 564.78436 807.9856 563.8625Q808.2981 562.925 808.9075 562.425Q809.5325 561.925 810.47 561.925Q811.1575 561.925 811.6731 562.20624Q812.20435 562.4875 812.5481 563.01874Q812.89185 563.53436 813.07935 564.28436Q813.26685 565.03436 813.26685 566.3156Q813.26685 567.83124 812.95435 568.7531Q812.6575 569.675 812.0325 570.1906Q811.4231 570.6906 810.47 570.6906Q809.2356 570.6906 808.51685 569.8Q807.6731 568.7375 807.6731 566.3156ZM808.7512 566.3156Q808.7512 568.425 809.2512 569.1281Q809.7512 569.83124 810.47 569.83124Q811.20435 569.83124 811.6887 569.1281Q812.1887 568.425 812.1887 566.3156Q812.1887 564.1906 811.6887 563.5031Q811.20435 562.8 810.45435 562.8Q809.7356 562.8 809.2981 563.40936Q808.7512 564.1906 808.7512 566.3156ZM820.22 569.53436L820.22 570.55L814.5325 570.55Q814.5325 570.175 814.6575 569.8156Q814.8762 569.2375 815.345 568.675Q815.82935 568.1125 816.7356 567.3781Q818.14185 566.22186 818.6262 565.55Q819.1262 564.8781 819.1262 564.28436Q819.1262 563.65936 818.6731 563.2375Q818.22 562.8 817.5012 562.8Q816.7356 562.8 816.2825 563.2531Q815.82935 563.70624 815.8137 564.51874L814.7356 564.40936Q814.845 563.1906 815.5637 562.5656Q816.2981 561.925 817.5325 561.925Q818.76685 561.925 819.4856 562.6125Q820.20435 563.3 820.20435 564.3156Q820.20435 564.83124 819.9856 565.33124Q819.7825 565.8156 819.2825 566.3781Q818.7981 566.925 817.6731 567.8781Q816.72 568.675 816.4387 568.97186Q816.1731 569.2531 816.0012 569.53436L820.22 569.53436ZM821.6731 568.28436L822.7356 568.14374Q822.9075 569.03436 823.345 569.4406Q823.7825 569.83124 824.4075 569.83124Q825.1575 569.83124 825.6731 569.3156Q826.1887 568.8 826.1887 568.03436Q826.1887 567.3156 825.70435 566.84686Q825.2356 566.3625 824.5012 566.3625Q824.20435 566.3625 823.7512 566.4875L823.8762 565.55Q823.9856 565.5656 824.0481 565.5656Q824.72 565.5656 825.2512 565.22186Q825.7981 564.8625 825.7981 564.1281Q825.7981 563.55 825.4075 563.175Q825.01685 562.78436 824.39185 562.78436Q823.7825 562.78436 823.3606 563.175Q822.95435 563.5656 822.845 564.33124L821.7825 564.14374Q821.97 563.09686 822.6575 562.51874Q823.345 561.925 824.3606 561.925Q825.0637 561.925 825.6575 562.2375Q826.2512 562.53436 826.5637 563.05Q826.8762 563.5656 826.8762 564.15936Q826.8762 564.70624 826.57935 565.175Q826.2825 565.6281 825.70435 565.89374Q826.45435 566.0656 826.8762 566.6281Q827.2981 567.175 827.2981 568.01874Q827.2981 569.14374 826.47 569.925Q825.6575 570.70624 824.4075 570.70624Q823.2825 570.70624 822.5325 570.03436Q821.7825 569.34686 821.6731 568.28436ZM828.5481 567.97186L828.5481 566.90936L831.7981 566.90936L831.7981 567.97186L828.5481 567.97186ZM832.6731 566.3156Q832.6731 564.78436 832.9856 563.8625Q833.2981 562.925 833.9075 562.425Q834.5325 561.925 835.47 561.925Q836.1575 561.925 836.6731 562.20624Q837.20435 562.4875 837.5481 563.01874Q837.89185 563.53436 838.07935 564.28436Q838.26685 565.03436 838.26685 566.3156Q838.26685 567.83124 837.95435 568.7531Q837.6575 569.675 837.0325 570.1906Q836.4231 570.6906 835.47 570.6906Q834.2356 570.6906 833.51685 569.8Q832.6731 568.7375 832.6731 566.3156ZM833.7512 566.3156Q833.7512 568.425 834.2512 569.1281Q834.7512 569.83124 835.47 569.83124Q836.20435 569.83124 836.6887 569.1281Q837.1887 568.425 837.1887 566.3156Q837.1887 564.1906 836.6887 563.5031Q836.20435 562.8 835.45435 562.8Q834.7356 562.8 834.2981 563.40936Q833.7512 564.1906 833.7512 566.3156ZM839.6731 568.3L840.7825 568.20624Q840.9075 569.01874 841.345 569.425Q841.7981 569.83124 842.4387 569.83124Q843.1887 569.83124 843.72 569.2531Q844.2512 568.675 844.2512 567.7375Q844.2512 566.83124 843.7356 566.3156Q843.2356 565.78436 842.4075 565.78436Q841.9075 565.78436 841.4856 566.01874Q841.07935 566.2531 840.845 566.6125L839.8606 566.4875L840.6887 562.08124L844.97 562.08124L844.97 563.08124L841.5325 563.08124L841.07935 565.39374Q841.845 564.84686 842.6887 564.84686Q843.8137 564.84686 844.57935 565.6281Q845.3606 566.40936 845.3606 567.64374Q845.3606 568.8 844.6887 569.65936Q843.8606 570.6906 842.4387 570.6906Q841.26685 570.6906 840.51685 570.03436Q839.7825 569.3781 839.6731 568.3ZM846.5481 567.97186L846.5481 566.90936L849.7981 566.90936L849.7981 567.97186L846.5481 567.97186ZM850.6731 566.3156Q850.6731 564.78436 850.9856 563.8625Q851.2981 562.925 851.9075 562.425Q852.5325 561.925 853.47 561.925Q854.1575 561.925 854.6731 562.20624Q855.20435 562.4875 855.5481 563.01874Q855.89185 563.53436 856.07935 564.28436Q856.26685 565.03436 856.26685 566.3156Q856.26685 567.83124 855.95435 568.7531Q855.6575 569.675 855.0325 570.1906Q854.4231 570.6906 853.47 570.6906Q852.2356 570.6906 851.51685 569.8Q850.6731 568.7375 850.6731 566.3156ZM851.7512 566.3156Q851.7512 568.425 852.2512 569.1281Q852.7512 569.83124 853.47 569.83124Q854.20435 569.83124 854.6887 569.1281Q855.1887 568.425 855.1887 566.3156Q855.1887 564.1906 854.6887 563.5031Q854.20435 562.8 853.45435 562.8Q852.7356 562.8 852.2981 563.40936Q851.7512 564.1906 851.7512 566.3156ZM861.64185 570.55L860.595 570.55L860.595 563.83124Q860.20435 564.1906 859.57935 564.5656Q858.97 564.925 858.4856 565.09686L858.4856 564.08124Q859.3606 563.65936 860.01685 563.08124Q860.6887 562.4875 860.97 561.925L861.64185 561.925L861.64185 570.55Z" fill-rule="nonzero"/><path fill="#000000" d="M1032.333 569.53436L1032.333 570.55L1026.6455 570.55Q1026.6455 570.175 1026.7705 569.8156Q1026.9893 569.2375 1027.458 568.675Q1027.9424 568.1125 1028.8486 567.3781Q1030.2549 566.22186 1030.7393 565.55Q1031.2393 564.8781 1031.2393 564.28436Q1031.2393 563.65936 1030.7861 563.2375Q1030.333 562.8 1029.6143 562.8Q1028.8486 562.8 1028.3955 563.2531Q1027.9424 563.70624 1027.9268 564.51874L1026.8486 564.40936Q1026.958 563.1906 1027.6768 562.5656Q1028.4111 561.925 1029.6455 561.925Q1030.8799 561.925 1031.5986 562.6125Q1032.3174 563.3 1032.3174 564.3156Q1032.3174 564.83124 1032.0986 565.33124Q1031.8955 565.8156 1031.3955 566.3781Q1030.9111 566.925 1029.7861 567.8781Q1028.833 568.675 1028.5518 568.97186Q1028.2861 569.2531 1028.1143 569.53436L1032.333 569.53436ZM1033.7861 566.3156Q1033.7861 564.78436 1034.0986 563.8625Q1034.4111 562.925 1035.0205 562.425Q1035.6455 561.925 1036.583 561.925Q1037.2705 561.925 1037.7861 562.20624Q1038.3174 562.4875 1038.6611 563.01874Q1039.0049 563.53436 1039.1924 564.28436Q1039.3799 565.03436 1039.3799 566.3156Q1039.3799 567.83124 1039.0674 568.7531Q1038.7705 569.675 1038.1455 570.1906Q1037.5361 570.6906 1036.583 570.6906Q1035.3486 570.6906 1034.6299 569.8Q1033.7861 568.7375 1033.7861 566.3156ZM1034.8643 566.3156Q1034.8643 568.425 1035.3643 569.1281Q1035.8643 569.83124 1036.583 569.83124Q1037.3174 569.83124 1037.8018 569.1281Q1038.3018 568.425 1038.3018 566.3156Q1038.3018 564.1906 1037.8018 563.5031Q1037.3174 562.8 1036.5674 562.8Q1035.8486 562.8 1035.4111 563.40936Q1034.8643 564.1906 1034.8643 566.3156ZM1046.333 569.53436L1046.333 570.55L1040.6455 570.55Q1040.6455 570.175 1040.7705 569.8156Q1040.9893 569.2375 1041.458 568.675Q1041.9424 568.1125 1042.8486 567.3781Q1044.2549 566.22186 1044.7393 565.55Q1045.2393 564.8781 1045.2393 564.28436Q1045.2393 563.65936 1044.7861 563.2375Q1044.333 562.8 1043.6143 562.8Q1042.8486 562.8 1042.3955 563.2531Q1041.9424 563.70624 1041.9268 564.51874L1040.8486 564.40936Q1040.958 563.1906 1041.6768 562.5656Q1042.4111 561.925 1043.6455 561.925Q1044.8799 561.925 1045.5986 562.6125Q1046.3174 563.3 1046.3174 564.3156Q1046.3174 564.83124 1046.0986 565.33124Q1045.8955 565.8156 1045.3955 566.3781Q1044.9111 566.925 1043.7861 567.8781Q1042.833 568.675 1042.5518 568.97186Q1042.2861 569.2531 1042.1143 569.53436L1046.333 569.53436ZM1047.7861 568.28436L1048.8486 568.14374Q1049.0205 569.03436 1049.458 569.4406Q1049.8955 569.83124 1050.5205 569.83124Q1051.2705 569.83124 1051.7861 569.3156Q1052.3018 568.8 1052.3018 568.03436Q1052.3018 567.3156 1051.8174 566.84686Q1051.3486 566.3625 1050.6143 566.3625Q1050.3174 566.3625 1049.8643 566.4875L1049.9893 565.55Q1050.0986 565.5656 1050.1611 565.5656Q1050.833 565.5656 1051.3643 565.22186Q1051.9111 564.8625 1051.9111 564.1281Q1051.9111 563.55 1051.5205 563.175Q1051.1299 562.78436 1050.5049 562.78436Q1049.8955 562.78436 1049.4736 563.175Q1049.0674 563.5656 1048.958 564.33124L1047.8955 564.14374Q1048.083 563.09686 1048.7705 562.51874Q1049.458 561.925 1050.4736 561.925Q1051.1768 561.925 1051.7705 562.2375Q1052.3643 562.53436 1052.6768 563.05Q1052.9893 563.5656 1052.9893 564.15936Q1052.9893 564.70624 1052.6924 565.175Q1052.3955 565.6281 1051.8174 565.89374Q1052.5674 566.0656 1052.9893 566.6281Q1053.4111 567.175 1053.4111 568.01874Q1053.4111 569.14374 1052.583 569.925Q1051.7705 570.70624 1050.5205 570.70624Q1049.3955 570.70624 1048.6455 570.03436Q1047.8955 569.34686 1047.7861 568.28436ZM1054.6611 567.97186L1054.6611 566.90936L1057.9111 566.90936L1057.9111 567.97186L1054.6611 567.97186ZM1058.7861 566.3156Q1058.7861 564.78436 1059.0986 563.8625Q1059.4111 562.925 1060.0205 562.425Q1060.6455 561.925 1061.583 561.925Q1062.2705 561.925 1062.7861 562.20624Q1063.3174 562.4875 1063.6611 563.01874Q1064.0049 563.53436 1064.1924 564.28436Q1064.3799 565.03436 1064.3799 566.3156Q1064.3799 567.83124 1064.0674 568.7531Q1063.7705 569.675 1063.1455 570.1906Q1062.5361 570.6906 1061.583 570.6906Q1060.3486 570.6906 1059.6299 569.8Q1058.7861 568.7375 1058.7861 566.3156ZM1059.8643 566.3156Q1059.8643 568.425 1060.3643 569.1281Q1060.8643 569.83124 1061.583 569.83124Q1062.3174 569.83124 1062.8018 569.1281Q1063.3018 568.425 1063.3018 566.3156Q1063.3018 564.1906 1062.8018 563.5031Q1062.3174 562.8 1061.5674 562.8Q1060.8486 562.8 1060.4111 563.40936Q1059.8643 564.1906 1059.8643 566.3156ZM1065.8486 563.08124L1065.8486 562.0656L1071.4111 562.0656L1071.4111 562.89374Q1070.5986 563.76874 1069.7861 565.22186Q1068.9893 566.65936 1068.5518 568.1906Q1068.2236 569.26874 1068.1455 570.55L1067.0518 570.55Q1067.0674 569.53436 1067.4424 568.09686Q1067.833 566.65936 1068.5361 565.33124Q1069.2549 564.0031 1070.0674 563.08124L1065.8486 563.08124ZM1072.6611 567.97186L1072.6611 566.90936L1075.9111 566.90936L1075.9111 567.97186L1072.6611 567.97186ZM1076.7861 566.3156Q1076.7861 564.78436 1077.0986 563.8625Q1077.4111 562.925 1078.0205 562.425Q1078.6455 561.925 1079.583 561.925Q1080.2705 561.925 1080.7861 562.20624Q1081.3174 562.4875 1081.6611 563.01874Q1082.0049 563.53436 1082.1924 564.28436Q1082.3799 565.03436 1082.3799 566.3156Q1082.3799 567.83124 1082.0674 568.7531Q1081.7705 569.675 1081.1455 570.1906Q1080.5361 570.6906 1079.583 570.6906Q1078.3486 570.6906 1077.6299 569.8Q1076.7861 568.7375 1076.7861 566.3156ZM1077.8643 566.3156Q1077.8643 568.425 1078.3643 569.1281Q1078.8643 569.83124 1079.583 569.83124Q1080.3174 569.83124 1080.8018 569.1281Q1081.3018 568.425 1081.3018 566.3156Q1081.3018 564.1906 1080.8018 563.5031Q1080.3174 562.8 1079.5674 562.8Q1078.8486 562.8 1078.4111 563.40936Q1077.8643 564.1906 1077.8643 566.3156ZM1087.7549 570.55L1086.708 570.55L1086.708 563.83124Q1086.3174 564.1906 1085.6924 564.5656Q1085.083 564.925 1084.5986 565.09686L1084.5986 564.08124Q1085.4736 563.65936 1086.1299 563.08124Q1086.8018 562.4875 1087.083 561.925L1087.7549 561.925L1087.7549 570.55Z" fill-rule="nonzero"/><path fill="#757575" d="M35.340626 65.45L35.340626 39.684372L38.746876 39.684372L38.746876 50.262497L52.1375 50.262497L52.1375 39.684372L55.54375 39.684372L55.54375 65.45L52.1375 65.45L52.1375 53.309372L38.746876 53.309372L38.746876 65.45L35.340626 65.45ZM59.653126 56.121872Q59.653126 50.934372 62.528126 48.434372Q64.93437 46.356247 68.40312 46.356247Q72.24687 46.356247 74.68437 48.887497Q77.1375 51.403122 77.1375 55.856247Q77.1375 59.449997 76.05937 61.528122Q74.98125 63.590622 72.90312 64.73125Q70.84062 65.87187 68.40312 65.87187Q64.48125 65.87187 62.059376 63.356247Q59.653126 60.840622 59.653126 56.121872ZM62.903126 56.121872Q62.903126 59.699997 64.46562 61.481247Q66.02812 63.262497 68.40312 63.262497Q70.7625 63.262497 72.325 61.481247Q73.8875 59.684372 73.8875 56.012497Q73.8875 52.543747 72.30937 50.762497Q70.73125 48.981247 68.40312 48.981247Q66.02812 48.981247 64.46562 50.762497Q62.903126 52.528122 62.903126 56.121872ZM93.05937 65.45L93.05937 62.699997Q90.87187 65.87187 87.1375 65.87187Q85.48125 65.87187 84.04375 65.24687Q82.62187 64.60625 81.91875 63.653122Q81.23125 62.684372 80.95 61.293747Q80.74687 60.371872 80.74687 58.340622L80.74687 46.778122L83.91875 46.778122L83.91875 57.137497Q83.91875 59.606247 84.10625 60.481247Q84.40312 61.715622 85.37187 62.434372Q86.34062 63.153122 87.7625 63.153122Q89.18437 63.153122 90.43437 62.418747Q91.68437 61.684372 92.2 60.434372Q92.73125 59.168747 92.73125 56.778122L92.73125 46.778122L95.8875 46.778122L95.8875 65.45L93.05937 65.45ZM99.79375 65.45L99.79375 46.778122L102.6375 46.778122L102.6375 49.606247Q103.73125 47.621872 104.65312 46.996872Q105.575 46.356247 106.68437 46.356247Q108.27812 46.356247 109.93437 47.371872L108.84062 50.309372Q107.68437 49.621872 106.52812 49.621872Q105.48125 49.621872 104.65312 50.246872Q103.825 50.871872 103.48125 51.981247Q102.95 53.668747 102.95 55.668747L102.95 65.45L99.79375 65.45ZM110.55937 59.871872L113.68437 59.387497Q113.95 61.262497 115.15312 62.262497Q116.35625 63.262497 118.52812 63.262497Q120.7 63.262497 121.74687 62.387497Q122.80937 61.496872 122.80937 60.293747Q122.80937 59.231247 121.87187 58.606247Q121.23125 58.184372 118.6375 57.543747Q115.16875 56.653122 113.825 56.012497Q112.48125 55.371872 111.77812 54.246872Q111.09062 53.106247 111.09062 51.731247Q111.09062 50.496872 111.65312 49.434372Q112.23125 48.356247 113.21562 47.653122Q113.95 47.121872 115.21562 46.746872Q116.49687 46.356247 117.96562 46.356247Q120.15312 46.356247 121.80937 46.996872Q123.48125 47.621872 124.2625 48.715622Q125.05937 49.793747 125.35625 51.590622L122.2625 52.012497Q122.05937 50.574997 121.04375 49.778122Q120.02812 48.965622 118.18437 48.965622Q116.0125 48.965622 115.075 49.684372Q114.1375 50.403122 114.1375 51.371872Q114.1375 51.981247 114.52812 52.481247Q114.91875 52.981247 115.74687 53.324997Q116.21562 53.496872 118.54375 54.121872Q121.90312 55.028122 123.21562 55.606247Q124.54375 56.168747 125.29375 57.262497Q126.05937 58.340622 126.05937 59.965622Q126.05937 61.543747 125.1375 62.949997Q124.21562 64.34062 122.46562 65.10625Q120.73125 65.87187 118.54375 65.87187Q114.90312 65.87187 112.99687 64.35625Q111.09062 62.840622 110.55937 59.871872ZM138.55937 59.871872L141.68437 59.387497Q141.95 61.262497 143.15312 62.262497Q144.35625 63.262497 146.52812 63.262497Q148.7 63.262497 149.74687 62.387497Q150.80937 61.496872 150.80937 60.293747Q150.80937 59.231247 149.87187 58.606247Q149.23125 58.184372 146.6375 57.543747Q143.16875 56.653122 141.825 56.012497Q140.48125 55.371872 139.77812 54.246872Q139.09062 53.106247 139.09062 51.731247Q139.09062 50.496872 139.65312 49.434372Q140.23125 48.356247 141.21562 47.653122Q141.95 47.121872 143.21562 46.746872Q144.49687 46.356247 145.96562 46.356247Q148.15312 46.356247 149.80937 46.996872Q151.48125 47.621872 152.2625 48.715622Q153.05937 49.793747 153.35625 51.590622L150.2625 52.012497Q150.05937 50.574997 149.04375 49.778122Q148.02812 48.965622 146.18437 48.965622Q144.0125 48.965622 143.075 49.684372Q142.1375 50.403122 142.1375 51.371872Q142.1375 51.981247 142.52812 52.481247Q142.91875 52.981247 143.74687 53.324997Q144.21562 53.496872 146.54375 54.121872Q149.90312 55.028122 151.21562 55.606247Q152.54375 56.168747 153.29375 57.262497Q154.05937 58.340622 154.05937 59.965622Q154.05937 61.543747 153.1375 62.949997Q152.21562 64.34062 150.46562 65.10625Q148.73125 65.87187 146.54375 65.87187Q142.90312 65.87187 140.99687 64.35625Q139.09062 62.840622 138.55937 59.871872ZM157.825 72.60625L157.825 46.778122L160.7 46.778122L160.7 49.199997Q161.73125 47.778122 163.0125 47.074997Q164.29375 46.356247 166.12187 46.356247Q168.5125 46.356247 170.34062 47.590622Q172.16875 48.824997 173.09062 51.074997Q174.02812 53.309372 174.02812 55.981247Q174.02812 58.840622 172.99687 61.137497Q171.98125 63.434372 170.0125 64.65312Q168.05937 65.87187 165.8875 65.87187Q164.30937 65.87187 163.04375 65.2Q161.79375 64.52812 160.98125 63.512497L160.98125 72.60625L157.825 72.60625ZM160.68437 56.215622Q160.68437 59.824997 162.1375 61.543747Q163.60625 63.262497 165.68437 63.262497Q167.79375 63.262497 169.29375 61.481247Q170.79375 59.699997 170.79375 55.949997Q170.79375 52.387497 169.325 50.621872Q167.85625 48.840622 165.825 48.840622Q163.79375 48.840622 162.23125 50.731247Q160.68437 52.621872 160.68437 56.215622ZM190.60625 59.434372L193.87187 59.840622Q193.10625 62.699997 191.0125 64.29375Q188.91875 65.87187 185.66875 65.87187Q181.575 65.87187 179.16875 63.356247Q176.7625 60.824997 176.7625 56.278122Q176.7625 51.559372 179.18437 48.965622Q181.62187 46.356247 185.48125 46.356247Q189.23125 46.356247 191.60625 48.903122Q193.98125 51.449997 193.98125 56.074997Q193.98125 56.356247 193.96562 56.918747L180.04375 56.918747Q180.21562 59.996872 181.77812 61.637497Q183.34062 63.262497 185.68437 63.262497Q187.41875 63.262497 188.65312 62.356247Q189.8875 61.434372 190.60625 59.434372ZM180.21562 54.324997L190.6375 54.324997Q190.43437 51.965622 189.45 50.793747Q187.93437 48.965622 185.52812 48.965622Q183.34062 48.965622 181.85625 50.418747Q180.37187 51.871872 180.21562 54.324997ZM197.825 65.45L197.825 46.778122L200.66875 46.778122L200.66875 49.434372Q202.73125 46.356247 206.60625 46.356247Q208.29375 46.356247 209.71562 46.965622Q211.1375 47.574997 211.84062 48.559372Q212.54375 49.543747 212.825 50.887497Q212.99687 51.778122 212.99687 53.965622L212.99687 65.45L209.825 65.45L209.825 54.090622Q209.825 52.153122 209.45 51.199997Q209.09062 50.246872 208.15312 49.684372Q207.21562 49.106247 205.95 49.106247Q203.91875 49.106247 202.45 50.387497Q200.98125 51.668747 200.98125 55.246872L200.98125 65.45L197.825 65.45ZM223.73125 62.621872L224.18437 65.41875Q222.85625 65.7 221.79375 65.7Q220.075 65.7 219.12187 65.15312Q218.18437 64.60625 217.79375 63.715622Q217.40312 62.824997 217.40312 59.981247L217.40312 49.246872L215.09062 49.246872L215.09062 46.778122L217.40312 46.778122L217.40312 42.153122L220.54375 40.262497L220.54375 46.778122L223.73125 46.778122L223.73125 49.246872L220.54375 49.246872L220.54375 60.153122Q220.54375 61.512497 220.71562 61.903122Q220.8875 62.278122 221.2625 62.512497Q221.6375 62.746872 222.34062 62.746872Q222.87187 62.746872 223.73125 62.621872ZM235.65312 56.121872Q235.65312 50.934372 238.52812 48.434372Q240.93437 46.356247 244.40312 46.356247Q248.24687 46.356247 250.68437 48.887497Q253.1375 51.403122 253.1375 55.856247Q253.1375 59.449997 252.05937 61.528122Q250.98125 63.590622 248.90312 64.73125Q246.84062 65.87187 244.40312 65.87187Q240.48125 65.87187 238.05937 63.356247Q235.65312 60.840622 235.65312 56.121872ZM238.90312 56.121872Q238.90312 59.699997 240.46562 61.481247Q242.02812 63.262497 244.40312 63.262497Q246.7625 63.262497 248.325 61.481247Q249.8875 59.684372 249.8875 56.012497Q249.8875 52.543747 248.30937 50.762497Q246.73125 48.981247 244.40312 48.981247Q242.02812 48.981247 240.46562 50.762497Q238.90312 52.528122 238.90312 56.121872ZM256.825 65.45L256.825 46.778122L259.66876 46.778122L259.66876 49.434372Q261.73126 46.356247 265.60626 46.356247Q267.29376 46.356247 268.71564 46.965622Q270.1375 47.574997 270.84064 48.559372Q271.54376 49.543747 271.825 50.887497Q271.9969 51.778122 271.9969 53.965622L271.9969 65.45L268.825 65.45L268.825 54.090622Q268.825 52.153122 268.45 51.199997Q268.09064 50.246872 267.15314 49.684372Q266.21564 49.106247 264.95 49.106247Q262.91876 49.106247 261.45 50.387497Q259.98126 51.668747 259.98126 55.246872L259.98126 65.45L256.825 65.45ZM284.65314 56.121872Q284.65314 50.934372 287.52814 48.434372Q289.9344 46.356247 293.40314 46.356247Q297.2469 46.356247 299.6844 48.887497Q302.1375 51.403122 302.1375 55.856247Q302.1375 59.449997 301.0594 61.528122Q299.98126 63.590622 297.90314 64.73125Q295.84064 65.87187 293.40314 65.87187Q289.48126 65.87187 287.0594 63.356247Q284.65314 60.840622 284.65314 56.121872ZM287.90314 56.121872Q287.90314 59.699997 289.46564 61.481247Q291.02814 63.262497 293.40314 63.262497Q295.7625 63.262497 297.325 61.481247Q298.8875 59.684372 298.8875 56.012497Q298.8875 52.543747 297.3094 50.762497Q295.73126 48.981247 293.40314 48.981247Q291.02814 48.981247 289.46564 50.762497Q287.90314 52.528122 287.90314 56.121872ZM305.825 72.60625L305.825 46.778122L308.7 46.778122L308.7 49.199997Q309.73126 47.778122 311.0125 47.074997Q312.29376 46.356247 314.1219 46.356247Q316.5125 46.356247 318.34064 47.590622Q320.16876 48.824997 321.09064 51.074997Q322.02814 53.309372 322.02814 55.981247Q322.02814 58.840622 320.9969 61.137497Q319.98126 63.434372 318.0125 64.65312Q316.0594 65.87187 313.8875 65.87187Q312.3094 65.87187 311.04376 65.2Q309.79376 64.52812 308.98126 63.512497L308.98126 72.60625L305.825 72.60625ZM308.6844 56.215622Q308.6844 59.824997 310.1375 61.543747Q311.60626 63.262497 313.6844 63.262497Q315.79376 63.262497 317.29376 61.481247Q318.79376 59.699997 318.79376 55.949997Q318.79376 52.387497 317.325 50.621872Q315.85626 48.840622 313.825 48.840622Q311.79376 48.840622 310.23126 50.731247Q308.6844 52.621872 308.6844 56.215622ZM338.60626 59.434372L341.8719 59.840622Q341.10626 62.699997 339.0125 64.29375Q336.91876 65.87187 333.66876 65.87187Q329.575 65.87187 327.16876 63.356247Q324.7625 60.824997 324.7625 56.278122Q324.7625 51.559372 327.1844 48.965622Q329.6219 46.356247 333.48126 46.356247Q337.23126 46.356247 339.60626 48.903122Q341.98126 51.449997 341.98126 56.074997Q341.98126 56.356247 341.96564 56.918747L328.04376 56.918747Q328.21564 59.996872 329.77814 61.637497Q331.34064 63.262497 333.6844 63.262497Q335.41876 63.262497 336.65314 62.356247Q337.8875 61.434372 338.60626 59.434372ZM328.21564 54.324997L338.6375 54.324997Q338.4344 51.965622 337.45 50.793747Q335.9344 48.965622 333.52814 48.965622Q331.34064 48.965622 329.85626 50.418747Q328.3719 51.871872 328.21564 54.324997ZM345.825 65.45L345.825 46.778122L348.66876 46.778122L348.66876 49.434372Q350.73126 46.356247 354.60626 46.356247Q356.29376 46.356247 357.71564 46.965622Q359.1375 47.574997 359.84064 48.559372Q360.54376 49.543747 360.825 50.887497Q360.9969 51.778122 360.9969 53.965622L360.9969 65.45L357.825 65.45L357.825 54.090622Q357.825 52.153122 357.45 51.199997Q357.09064 50.246872 356.15314 49.684372Q355.21564 49.106247 353.95 49.106247Q351.91876 49.106247 350.45 50.387497Q348.98126 51.668747 348.98126 55.246872L348.98126 65.45L345.825 65.45ZM384.7625 62.684372Q387.1375 64.325 389.1375 65.075L388.1375 67.45Q385.35626 66.45 382.59064 64.29375Q379.73126 65.8875 376.2625 65.8875Q372.7625 65.8875 369.91876 64.2Q367.075 62.512497 365.52814 59.465622Q363.9969 56.403122 363.9969 52.559372Q363.9969 48.746872 365.54376 45.621872Q367.09064 42.496872 369.95 40.856247Q372.8094 39.215622 376.34064 39.215622Q379.90314 39.215622 382.7625 40.918747Q385.6375 42.621872 387.1375 45.668747Q388.6375 48.715622 388.6375 52.543747Q388.6375 55.731247 387.66876 58.278122Q386.71564 60.809372 384.7625 62.684372ZM377.2469 58.324997Q380.2 59.153122 382.1219 60.793747Q385.1219 58.043747 385.1219 52.543747Q385.1219 49.418747 384.0594 47.090622Q382.9969 44.746872 380.95 43.449997Q378.90314 42.153122 376.35626 42.153122Q372.54376 42.153122 370.02814 44.762497Q367.5125 47.371872 367.5125 52.559372Q367.5125 57.590622 369.9969 60.278122Q372.48126 62.965622 376.35626 62.965622Q378.1844 62.965622 379.79376 62.278122Q378.2 61.246872 376.41876 60.809372L377.2469 58.324997ZM390.40314 65.45L400.29376 39.684372L403.96564 39.684372L414.5125 65.45L410.6375 65.45L407.6219 57.637497L396.85626 57.637497L394.0125 65.45L390.40314 65.45ZM397.84064 54.871872L406.575 54.871872L403.8875 47.731247Q402.65314 44.481247 402.0594 42.387497Q401.5594 44.871872 400.66876 47.309372L397.84064 54.871872ZM425.825 65.45L425.825 46.778122L428.65314 46.778122L428.65314 49.403122Q429.52814 48.028122 430.98126 47.199997Q432.45 46.356247 434.3094 46.356247Q436.3875 46.356247 437.71564 47.215622Q439.04376 48.074997 439.59064 49.621872Q441.8094 46.356247 445.35626 46.356247Q448.1375 46.356247 449.6219 47.903122Q451.1219 49.434372 451.1219 52.637497L451.1219 65.45L447.96564 65.45L447.96564 53.684372Q447.96564 51.793747 447.65314 50.965622Q447.35626 50.121872 446.54376 49.621872Q445.7469 49.106247 444.65314 49.106247Q442.6844 49.106247 441.3719 50.418747Q440.075 51.715622 440.075 54.606247L440.075 65.45L436.91876 65.45L436.91876 53.324997Q436.91876 51.215622 436.1375 50.168747Q435.3719 49.106247 433.60626 49.106247Q432.27814 49.106247 431.1375 49.809372Q430.0125 50.512497 429.4969 51.871872Q428.98126 53.215622 428.98126 55.762497L428.98126 65.45L425.825 65.45ZM469.0125 63.153122Q467.2469 64.6375 465.6219 65.2625Q463.9969 65.87187 462.1375 65.87187Q459.0594 65.87187 457.40314 64.37187Q455.7469 62.871872 455.7469 60.528122Q455.7469 59.153122 456.3719 58.028122Q456.9969 56.887497 458.0125 56.199997Q459.02814 55.512497 460.29376 55.168747Q461.21564 54.918747 463.10626 54.684372Q466.9344 54.231247 468.7469 53.606247Q468.7625 52.949997 468.7625 52.778122Q468.7625 50.840622 467.85626 50.043747Q466.65314 48.981247 464.2625 48.981247Q462.02814 48.981247 460.96564 49.762497Q459.90314 50.543747 459.3875 52.528122L456.29376 52.106247Q456.71564 50.121872 457.6844 48.903122Q458.65314 47.684372 460.48126 47.028122Q462.3094 46.356247 464.71564 46.356247Q467.10626 46.356247 468.59064 46.918747Q470.09064 47.481247 470.79376 48.340622Q471.4969 49.184372 471.77814 50.496872Q471.9344 51.293747 471.9344 53.403122L471.9344 57.621872Q471.9344 62.043747 472.1375 63.215622Q472.34064 64.37187 472.95 65.45L469.6375 65.45Q469.15314 64.46562 469.0125 63.153122ZM468.7469 56.074997Q467.0125 56.778122 463.575 57.278122Q461.6219 57.559372 460.8094 57.918747Q460.0125 58.262497 459.5594 58.934372Q459.1219 59.606247 459.1219 60.434372Q459.1219 61.699997 460.075 62.543747Q461.04376 63.387497 462.8875 63.387497Q464.71564 63.387497 466.1375 62.590622Q467.5594 61.793747 468.23126 60.403122Q468.7469 59.324997 468.7469 57.246872L468.7469 56.074997ZM476.84064 43.324997L476.84064 39.684372L480.0125 39.684372L480.0125 43.324997L476.84064 43.324997ZM476.84064 65.45L476.84064 46.778122L480.0125 46.778122L480.0125 65.45L476.84064 65.45ZM483.825 65.45L483.825 46.778122L486.66876 46.778122L486.66876 49.434372Q488.73126 46.356247 492.60626 46.356247Q494.29376 46.356247 495.71564 46.965622Q497.1375 47.574997 497.84064 48.559372Q498.54376 49.543747 498.825 50.887497Q498.9969 51.778122 498.9969 53.965622L498.9969 65.45L495.825 65.45L495.825 54.090622Q495.825 52.153122 495.45 51.199997Q495.09064 50.246872 494.15314 49.684372Q493.21564 49.106247 491.95 49.106247Q489.91876 49.106247 488.45 50.387497Q486.98126 51.668747 486.98126 55.246872L486.98126 65.45L483.825 65.45ZM509.73126 62.621872L510.1844 65.41875Q508.85626 65.7 507.79376 65.7Q506.075 65.7 505.1219 65.15312Q504.1844 64.60625 503.79376 63.715622Q503.40314 62.824997 503.40314 59.981247L503.40314 49.246872L501.09064 49.246872L501.09064 46.778122L503.40314 46.778122L503.40314 42.153122L506.54376 40.262497L506.54376 46.778122L509.73126 46.778122L509.73126 49.246872L506.54376 49.246872L506.54376 60.153122Q506.54376 61.512497 506.71564 61.903122Q506.8875 62.278122 507.2625 62.512497Q507.6375 62.746872 508.34064 62.746872Q508.8719 62.746872 509.73126 62.621872ZM525.60626 59.434372L528.8719 59.840622Q528.10626 62.699997 526.0125 64.29375Q523.91876 65.87187 520.66876 65.87187Q516.575 65.87187 514.16876 63.356247Q511.7625 60.824997 511.7625 56.278122Q511.7625 51.559372 514.1844 48.965622Q516.6219 46.356247 520.48126 46.356247Q524.23126 46.356247 526.60626 48.903122Q528.98126 51.449997 528.98126 56.074997Q528.98126 56.356247 528.96564 56.918747L515.04376 56.918747Q515.21564 59.996872 516.77814 61.637497Q518.34064 63.262497 520.6844 63.262497Q522.41876 63.262497 523.65314 62.356247Q524.8875 61.434372 525.60626 59.434372ZM515.21564 54.324997L525.6375 54.324997Q525.4344 51.965622 524.45 50.793747Q522.9344 48.965622 520.52814 48.965622Q518.34064 48.965622 516.85626 50.418747Q515.3719 51.871872 515.21564 54.324997ZM532.825 65.45L532.825 46.778122L535.66876 46.778122L535.66876 49.434372Q537.73126 46.356247 541.60626 46.356247Q543.29376 46.356247 544.71564 46.965622Q546.1375 47.574997 546.84064 48.559372Q547.54376 49.543747 547.825 50.887497Q547.9969 51.778122 547.9969 53.965622L547.9969 65.45L544.825 65.45L544.825 54.090622Q544.825 52.153122 544.45 51.199997Q544.09064 50.246872 543.15314 49.684372Q542.21564 49.106247 540.95 49.106247Q538.91876 49.106247 537.45 50.387497Q535.98126 51.668747 535.98126 55.246872L535.98126 65.45L532.825 65.45ZM564.0125 63.153122Q562.2469 64.6375 560.6219 65.2625Q558.9969 65.87187 557.1375 65.87187Q554.0594 65.87187 552.40314 64.37187Q550.7469 62.871872 550.7469 60.528122Q550.7469 59.153122 551.3719 58.028122Q551.9969 56.887497 553.0125 56.199997Q554.02814 55.512497 555.29376 55.168747Q556.21564 54.918747 558.10626 54.684372Q561.9344 54.231247 563.7469 53.606247Q563.7625 52.949997 563.7625 52.778122Q563.7625 50.840622 562.85626 50.043747Q561.65314 48.981247 559.2625 48.981247Q557.02814 48.981247 555.96564 49.762497Q554.90314 50.543747 554.3875 52.528122L551.29376 52.106247Q551.71564 50.121872 552.6844 48.903122Q553.65314 47.684372 555.48126 47.028122Q557.3094 46.356247 559.71564 46.356247Q562.10626 46.356247 563.59064 46.918747Q565.09064 47.481247 565.79376 48.340622Q566.4969 49.184372 566.77814 50.496872Q566.9344 51.293747 566.9344 53.403122L566.9344 57.621872Q566.9344 62.043747 567.1375 63.215622Q567.34064 64.37187 567.95 65.45L564.6375 65.45Q564.15314 64.46562 564.0125 63.153122ZM563.7469 56.074997Q562.0125 56.778122 558.575 57.278122Q556.6219 57.559372 555.8094 57.918747Q555.0125 58.262497 554.5594 58.934372Q554.1219 59.606247 554.1219 60.434372Q554.1219 61.699997 555.075 62.543747Q556.04376 63.387497 557.8875 63.387497Q559.71564 63.387497 561.1375 62.590622Q562.5594 61.793747 563.23126 60.403122Q563.7469 59.324997 563.7469 57.246872L563.7469 56.074997ZM571.825 65.45L571.825 46.778122L574.66876 46.778122L574.66876 49.434372Q576.73126 46.356247 580.60626 46.356247Q582.29376 46.356247 583.71564 46.965622Q585.1375 47.574997 585.84064 48.559372Q586.54376 49.543747 586.825 50.887497Q586.9969 51.778122 586.9969 53.965622L586.9969 65.45L583.825 65.45L583.825 54.090622Q583.825 52.153122 583.45 51.199997Q583.09064 50.246872 582.15314 49.684372Q581.21564 49.106247 579.95 49.106247Q577.91876 49.106247 576.45 50.387497Q574.98126 51.668747 574.98126 55.246872L574.98126 65.45L571.825 65.45ZM603.0125 58.606247L606.1219 59.012497Q605.60626 62.231247 603.4969 64.05937Q601.40314 65.87187 598.34064 65.87187Q594.5125 65.87187 592.1844 63.371872Q589.85626 60.856247 589.85626 56.184372Q589.85626 53.168747 590.85626 50.903122Q591.85626 48.621872 593.90314 47.496872Q595.95 46.356247 598.3719 46.356247Q601.40314 46.356247 603.34064 47.903122Q605.27814 49.434372 605.825 52.262497L602.7469 52.746872Q602.3094 50.856247 601.1844 49.918747Q600.075 48.965622 598.48126 48.965622Q596.09064 48.965622 594.59064 50.684372Q593.10626 52.387497 593.10626 56.090622Q593.10626 59.856247 594.54376 61.559372Q595.9969 63.262497 598.3094 63.262497Q600.16876 63.262497 601.41876 62.121872Q602.66876 60.981247 603.0125 58.606247ZM621.60626 59.434372L624.8719 59.840622Q624.10626 62.699997 622.0125 64.29375Q619.91876 65.87187 616.66876 65.87187Q612.575 65.87187 610.16876 63.356247Q607.7625 60.824997 607.7625 56.278122Q607.7625 51.559372 610.1844 48.965622Q612.6219 46.356247 616.48126 46.356247Q620.23126 46.356247 622.60626 48.903122Q624.98126 51.449997 624.98126 56.074997Q624.98126 56.356247 624.96564 56.918747L611.04376 56.918747Q611.21564 59.996872 612.77814 61.637497Q614.34064 63.262497 616.6844 63.262497Q618.41876 63.262497 619.65314 62.356247Q620.8875 61.434372 621.60626 59.434372ZM611.21564 54.324997L621.6375 54.324997Q621.4344 51.965622 620.45 50.793747Q618.9344 48.965622 616.52814 48.965622Q614.34064 48.965622 612.85626 50.418747Q611.3719 51.871872 611.21564 54.324997Z" fill-rule="nonzero"/></svg>